<?xml version="1.0" encoding="UTF-8"?>
<svg width="32px" height="22px" viewBox="0 0 32 22" version="1.1" xmlns="http://www.w3.org/2000/svg" xmlns:xlink="http://www.w3.org/1999/xlink">
    <!-- Generator: Sketch 51.3 (57544) - http://www.bohemiancoding.com/sketch -->
    <title>cloud</title>
    <desc>Created with Sketch.</desc>
    <defs>
        <polygon id="path-1" points="0.0511111111 0.719764706 0.0511111111 13.9991765 22.5306296 13.9991765 22.5306296 0.719764706"></polygon>
    </defs>
    <g id="Page-1" stroke="none" stroke-width="1" fill="none" fill-rule="evenodd">
        <g id="Artboard-6" transform="translate(-31.000000, -82.000000)">
            <g id="cloud" transform="translate(31.000000, 82.000000)">
                <g id="Group-3" transform="translate(0.000000, 8.000000)">
                    <mask id="mask-2" fill="white">
                        <use xlink:href="#path-1"></use>
                    </mask>
                    <g id="Clip-2"></g>
                    <path d="M17.4561481,13.9991765 L4.38874074,13.9991765 C1.96948148,13.9991765 0,12.0976471 0,9.75635294 C0,7.44964706 1.91325926,5.56458824 4.28907407,5.51270588 C5.13411111,2.67894118 7.80637037,0.719764706 10.8781481,0.719764706 C13.4268889,0.719764706 15.7192222,2.05470588 16.9237407,4.21976471 C17.1137037,4.20082353 17.2866296,4.19094118 17.4561481,4.19094118 C20.2510741,4.19094118 22.5306296,6.39141176 22.5306296,9.09341176 C22.5306296,11.7987059 20.2544815,13.9991765 17.4561481,13.9991765 Z M4.38874074,6.17235294 C2.346,6.17235294 0.682333333,7.78070588 0.682333333,9.75635294 C0.682333333,11.7344706 2.346,13.3395294 4.38874074,13.3395294 L17.4561481,13.3395294 C19.8788148,13.3395294 21.8482963,11.4355294 21.8482963,9.09341176 C21.8482963,6.75129412 19.8788148,4.85058824 17.4561481,4.85058824 C17.2534074,4.85058824 17.037037,4.86623529 16.7806296,4.90494118 C16.6341111,4.92470588 16.491,4.85388235 16.4245556,4.72458824 C15.3733704,2.66247059 13.2471481,1.37941176 10.8781481,1.37941176 C8.02955556,1.37941176 5.56003704,3.25129412 4.87855556,5.92776471 C4.84192593,6.07929412 4.70222222,6.17235294 4.53866667,6.17894118 L4.38874074,6.17235294 Z" id="Fill-1" fill="#8EE7FF" mask="url(#mask-2)"></path>
                </g>
                <path d="M17.9152013,22 C17.7257057,22 17.575475,21.8488665 17.575475,21.665827 C17.575475,21.4785894 17.7257057,21.3274559 17.9152013,21.3274559 C20.3427936,21.3274559 22.3162794,19.3862301 22.3162794,16.9983207 C22.3162794,14.6137699 20.3427936,12.6725441 17.9152013,12.6725441 C16.6416543,12.6725441 15.4346868,13.2132662 14.5973211,14.154492 C14.474405,14.29555 14.2575948,14.308984 14.117607,14.1872376 C13.9742049,14.0663308 13.9605476,13.8530647 14.0843173,13.7120067 C15.0480134,12.6230059 16.44533,12 17.9152013,12 C20.7192241,12 23,14.2434929 23,16.9983207 C23,19.7565071 20.7192241,22 17.9152013,22 Z" id="Fill-4" fill="#8EE7FF"></path>
                <path d="M24.9227614,15 C24.8332479,15 24.7411017,14.9680825 24.6726502,14.9042475 C24.5357473,14.7765775 24.5383801,14.5687045 24.6761606,14.4410345 C25.7213618,13.4687781 26.2970561,12.1740732 26.2970561,10.7991652 C26.2970561,7.96423603 23.8257828,5.65553646 20.7849581,5.65553646 C19.184247,5.65553646 17.6651511,6.30452574 16.6164395,7.433096 C16.4900676,7.5673132 16.2671615,7.58368115 16.1197276,7.4650135 C15.975804,7.34716425 15.9582524,7.13929127 16.0855019,7.00507406 C17.267606,5.73246583 18.9815254,5 20.7849581,5 C24.2092865,5 27,7.6025043 27,10.7958916 C27,12.3500286 26.3488335,13.8075947 25.1693621,14.9042475 C25.1009107,14.9680825 25.0122748,15 24.9227614,15 Z" id="Fill-5" fill="#F8E71C"></path>
                <path d="M21.402,3 C21.179,3 21,2.86108919 21,2.68587214 L21,0.314917127 C21,0.142067877 21.179,0 21.402,0 C21.621,0 21.801,0.142067877 21.801,0.314917127 L21.801,2.68587214 C21.801,2.86108919 21.621,3 21.402,3 Z" id="Fill-6" fill="#F8E71C"></path>
                <path d="M31.6829653,11.801 L29.3170347,11.801 C29.1411672,11.801 29,11.621 29,11.402 C29,11.18 29.1411672,11 29.3170347,11 L31.6829653,11 C31.8588328,11 32,11.18 32,11.402 C32,11.621 31.8588328,11.801 31.6829653,11.801 Z" id="Fill-7" fill="#F8E71C"></path>
                <path d="M27.4131921,5 C27.3086124,5 27.1999316,4.97330367 27.119959,4.91991101 C26.9600137,4.8131257 26.9600137,4.63925729 27.119959,4.53247198 L29.2987013,3.08060238 C29.4596719,2.97313254 29.7200957,2.97313254 29.880041,3.08060238 C30.0399863,3.1873877 30.0399863,3.3612561 29.880041,3.46804141 L27.7012987,4.91991101 C27.621326,4.97330367 27.5167464,5 27.4131921,5 Z" id="Fill-8" fill="#F8E71C"></path>
                <path d="M29.5904892,18 C29.4858023,18 29.3821416,17.9733037 29.3010606,17.919911 L27.1200821,16.4680414 C26.9599726,16.3612561 26.9599726,16.1873877 27.1200821,16.0806024 C27.2812179,15.9731325 27.541909,15.9731325 27.7020185,16.0806024 L29.8829969,17.532472 C30.039001,17.6392573 30.039001,17.8131257 29.8829969,17.919911 C29.8029422,17.9733037 29.6941498,18 29.5904892,18 Z" id="Fill-9" fill="#F8E71C"></path>
                <path d="M15.5909558,5 C15.4861254,5 15.3823227,4.97330367 15.3021583,4.91991101 L13.1171634,3.46804141 C12.9609455,3.3612561 12.9609455,3.1873877 13.1171634,3.08060238 C13.27852,2.97313254 13.5395683,2.97313254 13.6998972,3.08060238 L15.8797533,4.53247198 C16.0400822,4.63925729 16.0400822,4.8131257 15.8797533,4.91991101 C15.8036999,4.97330367 15.6947585,5 15.5909558,5 Z" id="Fill-10" fill="#F8E71C"></path>
            </g>
        </g>
    </g>
</svg>