<?xml version="1.0" encoding="UTF-8"?>
<svg width="22px" height="23px" viewBox="0 0 22 23" version="1.1" xmlns="http://www.w3.org/2000/svg" xmlns:xlink="http://www.w3.org/1999/xlink">
    <!-- Generator: Sketch 51.3 (57544) - http://www.bohemiancoding.com/sketch -->
    <title>Group</title>
    <desc>Created with Sketch.</desc>
    <defs></defs>
    <g id="Page-1" stroke="none" stroke-width="1" fill="none" fill-rule="evenodd">
        <g id="Artboard-6" transform="translate(-149.000000, -82.000000)">
            <g id="Group" transform="translate(149.000000, 82.000000)">
                <path d="M11.402,3 C11.179,3 11,2.86108919 11,2.68587214 L11,0.314917127 C11,0.142067877 11.179,0 11.402,0 C11.621,0 11.801,0.142067877 11.801,0.314917127 L11.801,2.68587214 C11.801,2.86108919 11.621,3 11.402,3 Z" id="Fill-6" fill="#F8E71C"></path>
                <path d="M11.402,23 C11.179,23 11,22.8610892 11,22.6858721 L11,20.3149171 C11,20.1420679 11.179,20 11.402,20 C11.621,20 11.801,20.1420679 11.801,20.3149171 L11.801,22.6858721 C11.801,22.8610892 11.621,23 11.402,23 Z" id="Fill-6-Copy" fill="#F8E71C"></path>
                <path d="M21.6829653,11.801 L19.3170347,11.801 C19.1411672,11.801 19,11.621 19,11.402 C19,11.18 19.1411672,11 19.3170347,11 L21.6829653,11 C21.8588328,11 22,11.18 22,11.402 C22,11.621 21.8588328,11.801 21.6829653,11.801 Z" id="Fill-7" fill="#F8E71C"></path>
                <path d="M2.6829653,11.801 L0.3170347,11.801 C0.141167192,11.801 0,11.621 0,11.402 C0,11.18 0.141167192,11 0.3170347,11 L2.6829653,11 C2.85883281,11 3,11.18 3,11.402 C3,11.621 2.85883281,11.801 2.6829653,11.801 Z" id="Fill-7-Copy" fill="#F8E71C"></path>
                <path d="M17.4131921,5 C17.3086124,5 17.1999316,4.97330367 17.119959,4.91991101 C16.9600137,4.8131257 16.9600137,4.63925729 17.119959,4.53247198 L19.2987013,3.08060238 C19.4596719,2.97313254 19.7200957,2.97313254 19.880041,3.08060238 C20.0399863,3.1873877 20.0399863,3.3612561 19.880041,3.46804141 L17.7012987,4.91991101 C17.621326,4.97330367 17.5167464,5 17.4131921,5 Z" id="Fill-8" fill="#F8E71C"></path>
                <path d="M2.41319207,18 C2.30861244,18 2.19993165,17.9733037 2.11995899,17.919911 C1.96001367,17.8131257 1.96001367,17.6392573 2.11995899,17.532472 L4.2987013,16.0806024 C4.45967191,15.9731325 4.72009569,15.9731325 4.88004101,16.0806024 C5.03998633,16.1873877 5.03998633,16.3612561 4.88004101,16.4680414 L2.7012987,17.919911 C2.62132604,17.9733037 2.51674641,18 2.41319207,18 Z" id="Fill-8-Copy" fill="#F8E71C"></path>
                <path d="M19.5904892,18 C19.4858023,18 19.3821416,17.9733037 19.3010606,17.919911 L17.1200821,16.4680414 C16.9599726,16.3612561 16.9599726,16.1873877 17.1200821,16.0806024 C17.2812179,15.9731325 17.541909,15.9731325 17.7020185,16.0806024 L19.8829969,17.532472 C20.039001,17.6392573 20.039001,17.8131257 19.8829969,17.919911 C19.8029422,17.9733037 19.6941498,18 19.5904892,18 Z" id="Fill-9" fill="#F8E71C"></path>
                <path d="M5.59095581,5 C5.48612539,5 5.38232271,4.97330367 5.30215827,4.91991101 L3.11716341,3.46804141 C2.96094553,3.3612561 2.96094553,3.1873877 3.11716341,3.08060238 C3.27852004,2.97313254 3.53956835,2.97313254 3.69989723,3.08060238 L5.87975334,4.53247198 C6.04008222,4.63925729 6.04008222,4.8131257 5.87975334,4.91991101 C5.8036999,4.97330367 5.69475848,5 5.59095581,5 Z" id="Fill-10" fill="#F8E71C"></path>
                <circle id="Oval-15" stroke="#F8E71C" stroke-width="0.5" fill-opacity="0" fill="#FFFFFF" cx="11.5" cy="11.5" r="5.5"></circle>
            </g>
        </g>
    </g>
</svg>