<?xml version="1.0" encoding="UTF-8"?>
<svg width="23px" height="21px" viewBox="0 0 23 21" version="1.1" xmlns="http://www.w3.org/2000/svg" xmlns:xlink="http://www.w3.org/1999/xlink">
    <!-- Generator: Sketch 51.3 (57544) - http://www.bohemiancoding.com/sketch -->
    <title>Group 2</title>
    <desc>Created with Sketch.</desc>
    <defs>
        <polygon id="path-1" points="0.0511111111 0.719764706 0.0511111111 13.9991765 22.5306296 13.9991765 22.5306296 0.719764706"></polygon>
    </defs>
    <g id="Page-1" stroke="none" stroke-width="1" fill="none" fill-rule="evenodd">
        <g id="Artboard-6" transform="translate(-197.000000, -86.000000)">
            <g id="Group-2" transform="translate(197.000000, 86.000000)">
                <g id="Group-3">
                    <mask id="mask-2" fill="white">
                        <use xlink:href="#path-1"></use>
                    </mask>
                    <g id="Clip-2"></g>
                    <path d="M17.4561481,13.9991765 L4.38874074,13.9991765 C1.96948148,13.9991765 0,12.0976471 0,9.75635294 C0,7.44964706 1.91325926,5.56458824 4.28907407,5.51270588 C5.13411111,2.67894118 7.80637037,0.719764706 10.8781481,0.719764706 C13.4268889,0.719764706 15.7192222,2.05470588 16.9237407,4.21976471 C17.1137037,4.20082353 17.2866296,4.19094118 17.4561481,4.19094118 C20.2510741,4.19094118 22.5306296,6.39141176 22.5306296,9.09341176 C22.5306296,11.7987059 20.2544815,13.9991765 17.4561481,13.9991765 Z M4.38874074,6.17235294 C2.346,6.17235294 0.682333333,7.78070588 0.682333333,9.75635294 C0.682333333,11.7344706 2.346,13.3395294 4.38874074,13.3395294 L17.4561481,13.3395294 C19.8788148,13.3395294 21.8482963,11.4355294 21.8482963,9.09341176 C21.8482963,6.75129412 19.8788148,4.85058824 17.4561481,4.85058824 C17.2534074,4.85058824 17.037037,4.86623529 16.7806296,4.90494118 C16.6341111,4.92470588 16.491,4.85388235 16.4245556,4.72458824 C15.3733704,2.66247059 13.2471481,1.37941176 10.8781481,1.37941176 C8.02955556,1.37941176 5.56003704,3.25129412 4.87855556,5.92776471 C4.84192593,6.07929412 4.70222222,6.17235294 4.53866667,6.17894118 L4.38874074,6.17235294 Z" id="Fill-1" fill="#8EE7FF" mask="url(#mask-2)"></path>
                </g>
                <path d="M0.68468048,17.5066015 C0.580100849,17.5066015 0.471420056,17.4799052 0.391447397,17.4265126 C0.231502079,17.3197272 0.231502079,17.1458588 0.391447397,17.0390735 L2.57018971,15.5872039 C2.73116032,15.4797341 2.9915841,15.4797341 3.15152942,15.5872039 C3.31147474,15.6939892 3.31147474,15.8678576 3.15152942,15.974643 L0.97278711,17.4265126 C0.892814451,17.4799052 0.78823482,17.5066015 0.68468048,17.5066015 Z" id="Fill-8" fill="#8EE7FF" transform="translate(1.771488, 16.506602) rotate(-23.000000) translate(-1.771488, -16.506602) "></path>
                <path d="M2.68468048,20.5066015 C2.58010085,20.5066015 2.47142006,20.4799052 2.3914474,20.4265126 C2.23150208,20.3197272 2.23150208,20.1458588 2.3914474,20.0390735 L4.57018971,18.5872039 C4.73116032,18.4797341 4.9915841,18.4797341 5.15152942,18.5872039 C5.31147474,18.6939892 5.31147474,18.8678576 5.15152942,18.974643 L2.97278711,20.4265126 C2.89281445,20.4799052 2.78823482,20.5066015 2.68468048,20.5066015 Z" id="Fill-8-Copy-2" fill="#8EE7FF" transform="translate(3.771488, 19.506602) rotate(-23.000000) translate(-3.771488, -19.506602) "></path>
                <path d="M8.68468048,18.5066015 C8.58010085,18.5066015 8.47142006,18.4799052 8.3914474,18.4265126 C8.23150208,18.3197272 8.23150208,18.1458588 8.3914474,18.0390735 L10.5701897,16.5872039 C10.7311603,16.4797341 10.9915841,16.4797341 11.1515294,16.5872039 C11.3114747,16.6939892 11.3114747,16.8678576 11.1515294,16.974643 L8.97278711,18.4265126 C8.89281445,18.4799052 8.78823482,18.5066015 8.68468048,18.5066015 Z" id="Fill-8-Copy-3" fill="#8EE7FF" transform="translate(9.771488, 17.506602) rotate(-23.000000) translate(-9.771488, -17.506602) "></path>
                <path d="M12.6846805,20.5066015 C12.5801008,20.5066015 12.4714201,20.4799052 12.3914474,20.4265126 C12.2315021,20.3197272 12.2315021,20.1458588 12.3914474,20.0390735 L14.5701897,18.5872039 C14.7311603,18.4797341 14.9915841,18.4797341 15.1515294,18.5872039 C15.3114747,18.6939892 15.3114747,18.8678576 15.1515294,18.974643 L12.9727871,20.4265126 C12.8928145,20.4799052 12.7882348,20.5066015 12.6846805,20.5066015 Z" id="Fill-8-Copy-4" fill="#8EE7FF" transform="translate(13.771488, 19.506602) rotate(-23.000000) translate(-13.771488, -19.506602) "></path>
                <path d="M17.6846805,17.5066015 C17.5801008,17.5066015 17.4714201,17.4799052 17.3914474,17.4265126 C17.2315021,17.3197272 17.2315021,17.1458588 17.3914474,17.0390735 L19.5701897,15.5872039 C19.7311603,15.4797341 19.9915841,15.4797341 20.1515294,15.5872039 C20.3114747,15.6939892 20.3114747,15.8678576 20.1515294,15.974643 L17.9727871,17.4265126 C17.8928145,17.4799052 17.7882348,17.5066015 17.6846805,17.5066015 Z" id="Fill-8-Copy-5" fill="#8EE7FF" transform="translate(18.771488, 16.506602) rotate(-23.000000) translate(-18.771488, -16.506602) "></path>
                <path d="M17.9152013,14 C17.7257057,14 17.575475,13.8488665 17.575475,13.665827 C17.575475,13.4785894 17.7257057,13.3274559 17.9152013,13.3274559 C20.3427936,13.3274559 22.3162794,11.3862301 22.3162794,8.99832074 C22.3162794,6.61376994 20.3427936,4.67254408 17.9152013,4.67254408 C16.6416543,4.67254408 15.4346868,5.21326616 14.5973211,6.15449202 C14.474405,6.29554996 14.2575948,6.30898405 14.117607,6.18723762 C13.9742049,6.06633081 13.9605476,5.85306465 14.0843173,5.71200672 C15.0480134,4.62300588 16.44533,4 17.9152013,4 C20.7192241,4 23,6.24349286 23,8.99832074 C23,11.7565071 20.7192241,14 17.9152013,14 Z" id="Fill-4" fill="#8EE7FF"></path>
            </g>
        </g>
    </g>
</svg>