<?xml version="1.0" encoding="UTF-8"?>
<svg width="24px" height="17px" viewBox="0 0 24 17" version="1.1" xmlns="http://www.w3.org/2000/svg" xmlns:xlink="http://www.w3.org/1999/xlink">
    <!-- Generator: Sketch 51.3 (57544) - http://www.bohemiancoding.com/sketch -->
    <title>@2x2</title>
    <desc>Created with Sketch.</desc>
    <defs>
        <polygon id="path-1" points="0.0333333333 0.462705882 0.0333333333 8.99947059 14.6938889 8.99947059 14.6938889 0.462705882"></polygon>
        <polygon id="path-3" points="0.0511111111 0.719764706 0.0511111111 13.9991765 22.5306296 13.9991765 22.5306296 0.719764706"></polygon>
    </defs>
    <g id="Page-1" stroke="none" stroke-width="1" fill="none" fill-rule="evenodd">
        <g id="Artboard-6" transform="translate(-133.000000, -115.000000)">
            <g id="2" transform="translate(133.000000, 115.000000)">
                <g id="cloud-copy-2" transform="translate(9.000000, 0.000000)">
                    <g id="Group-3">
                        <mask id="mask-2" fill="white">
                            <use xlink:href="#path-1"></use>
                        </mask>
                        <g id="Clip-2"></g>
                        <path d="M11.3844444,8.99947059 L2.86222222,8.99947059 C1.28444444,8.99947059 0,7.77705882 0,6.27194118 C0,4.78905882 1.24777778,3.57723529 2.79722222,3.54388235 C3.34833333,1.72217647 5.09111111,0.462705882 7.09444444,0.462705882 C8.75666667,0.462705882 10.2516667,1.32088235 11.0372222,2.71270588 C11.1611111,2.70052941 11.2738889,2.69417647 11.3844444,2.69417647 C13.2072222,2.69417647 14.6938889,4.10876471 14.6938889,5.84576471 C14.6938889,7.58488235 13.2094444,8.99947059 11.3844444,8.99947059 Z" id="Fill-1" fill="#B4DEE9" mask="url(#mask-2)"></path>
                    </g>
                </g>
                <g id="Group-3" transform="translate(0.000000, 3.000000)">
                    <mask id="mask-4" fill="white">
                        <use xlink:href="#path-3"></use>
                    </mask>
                    <g id="Clip-2"></g>
                    <path d="M17.4561481,13.9991765 L4.38874074,13.9991765 C1.96948148,13.9991765 0,12.0976471 0,9.75635294 C0,7.44964706 1.91325926,5.56458824 4.28907407,5.51270588 C5.13411111,2.67894118 7.80637037,0.719764706 10.8781481,0.719764706 C13.4268889,0.719764706 15.7192222,2.05470588 16.9237407,4.21976471 C17.1137037,4.20082353 17.2866296,4.19094118 17.4561481,4.19094118 C20.2510741,4.19094118 22.5306296,6.39141176 22.5306296,9.09341176 C22.5306296,11.7987059 20.2544815,13.9991765 17.4561481,13.9991765 Z" id="Fill-1" fill="#E8F5F8" mask="url(#mask-4)"></path>
                </g>
            </g>
        </g>
    </g>
</svg>