<?xml version="1.0" encoding="UTF-8"?>
<svg width="31px" height="20px" viewBox="0 0 31 20" version="1.1" xmlns="http://www.w3.org/2000/svg" xmlns:xlink="http://www.w3.org/1999/xlink">
    <!-- Generator: Sketch 51.3 (57544) - http://www.bohemiancoding.com/sketch -->
    <title>Group 7</title>
    <desc>Created with Sketch.</desc>
    <defs>
        <polygon id="path-1" points="0.0511111111 0.719764706 0.0511111111 13.9991765 22.5306296 13.9991765 22.5306296 0.719764706"></polygon>
        <polygon id="path-3" points="0.0333333333 0.462705882 0.0333333333 8.99947059 14.6938889 8.99947059 14.6938889 0.462705882"></polygon>
    </defs>
    <g id="Page-1" stroke="none" stroke-width="1" fill="none" fill-rule="evenodd">
        <g id="Artboard-6" transform="translate(-89.000000, -84.000000)">
            <g id="Group-7" transform="translate(89.000000, 84.000000)">
                <g id="cloud-copy" transform="translate(0.000000, 6.000000)">
                    <g id="Group-3">
                        <mask id="mask-2" fill="white">
                            <use xlink:href="#path-1"></use>
                        </mask>
                        <g id="Clip-2"></g>
                        <path d="M17.4561481,13.9991765 L4.38874074,13.9991765 C1.96948148,13.9991765 0,12.0976471 0,9.75635294 C0,7.44964706 1.91325926,5.56458824 4.28907407,5.51270588 C5.13411111,2.67894118 7.80637037,0.719764706 10.8781481,0.719764706 C13.4268889,0.719764706 15.7192222,2.05470588 16.9237407,4.21976471 C17.1137037,4.20082353 17.2866296,4.19094118 17.4561481,4.19094118 C20.2510741,4.19094118 22.5306296,6.39141176 22.5306296,9.09341176 C22.5306296,11.7987059 20.2544815,13.9991765 17.4561481,13.9991765 Z M4.38874074,6.17235294 C2.346,6.17235294 0.682333333,7.78070588 0.682333333,9.75635294 C0.682333333,11.7344706 2.346,13.3395294 4.38874074,13.3395294 L17.4561481,13.3395294 C19.8788148,13.3395294 21.8482963,11.4355294 21.8482963,9.09341176 C21.8482963,6.75129412 19.8788148,4.85058824 17.4561481,4.85058824 C17.2534074,4.85058824 17.037037,4.86623529 16.7806296,4.90494118 C16.6341111,4.92470588 16.491,4.85388235 16.4245556,4.72458824 C15.3733704,2.66247059 13.2471481,1.37941176 10.8781481,1.37941176 C8.02955556,1.37941176 5.56003704,3.25129412 4.87855556,5.92776471 C4.84192593,6.07929412 4.70222222,6.17235294 4.53866667,6.17894118 L4.38874074,6.17235294 Z" id="Fill-1" fill="#8EE7FF" mask="url(#mask-2)"></path>
                    </g>
                    <path d="M17.9152013,14 C17.7257057,14 17.575475,13.8488665 17.575475,13.665827 C17.575475,13.4785894 17.7257057,13.3274559 17.9152013,13.3274559 C20.3427936,13.3274559 22.3162794,11.3862301 22.3162794,8.99832074 C22.3162794,6.61376994 20.3427936,4.67254408 17.9152013,4.67254408 C16.6416543,4.67254408 15.4346868,5.21326616 14.5973211,6.15449202 C14.474405,6.29554996 14.2575948,6.30898405 14.117607,6.18723762 C13.9742049,6.06633081 13.9605476,5.85306465 14.0843173,5.71200672 C15.0480134,4.62300588 16.44533,4 17.9152013,4 C20.7192241,4 23,6.24349286 23,8.99832074 C23,11.7565071 20.7192241,14 17.9152013,14 Z" id="Fill-4" fill="#8EE7FF"></path>
                </g>
                <g id="cloud-copy-2" transform="translate(16.000000, 0.000000)">
                    <g id="Group-3">
                        <mask id="mask-4" fill="white">
                            <use xlink:href="#path-3"></use>
                        </mask>
                        <g id="Clip-2"></g>
                        <path d="M11.3844444,8.99947059 L2.86222222,8.99947059 C1.28444444,8.99947059 0,7.77705882 0,6.27194118 C0,4.78905882 1.24777778,3.57723529 2.79722222,3.54388235 C3.34833333,1.72217647 5.09111111,0.462705882 7.09444444,0.462705882 C8.75666667,0.462705882 10.2516667,1.32088235 11.0372222,2.71270588 C11.1611111,2.70052941 11.2738889,2.69417647 11.3844444,2.69417647 C13.2072222,2.69417647 14.6938889,4.10876471 14.6938889,5.84576471 C14.6938889,7.58488235 13.2094444,8.99947059 11.3844444,8.99947059 Z M2.86222222,3.96794118 C1.53,3.96794118 0.445,5.00188235 0.445,6.27194118 C0.445,7.54358824 1.53,8.57541176 2.86222222,8.57541176 L11.3844444,8.57541176 C12.9644444,8.57541176 14.2488889,7.35141176 14.2488889,5.84576471 C14.2488889,4.34011765 12.9644444,3.11823529 11.3844444,3.11823529 C11.2522222,3.11823529 11.1111111,3.12829412 10.9438889,3.15317647 C10.8483333,3.16588235 10.755,3.12035294 10.7116667,3.03723529 C10.0261111,1.71158824 8.63944444,0.886764706 7.09444444,0.886764706 C5.23666667,0.886764706 3.62611111,2.09011765 3.18166667,3.81070588 C3.15777778,3.90811765 3.06666667,3.96794118 2.96,3.97217647 L2.86222222,3.96794118 Z" id="Fill-1" fill="#8EE7FF" mask="url(#mask-4)"></path>
                    </g>
                    <path d="M11.6101342,9 C11.4838038,9 11.38365,8.9093199 11.38365,8.79949622 C11.38365,8.68715365 11.4838038,8.59647355 11.6101342,8.59647355 C13.2285291,8.59647355 14.5441863,7.43173804 14.5441863,5.99899244 C14.5441863,4.56826196 13.2285291,3.40352645 11.6101342,3.40352645 C10.7611029,3.40352645 9.95645788,3.7279597 9.39821408,4.29269521 C9.31627003,4.37732997 9.17172984,4.38539043 9.07840468,4.31234257 C8.9828033,4.23979849 8.9736984,4.11183879 9.0562115,4.02720403 C9.69867557,3.37380353 10.63022,3 11.6101342,3 C13.4794827,3 15,4.34609572 15,5.99899244 C15,7.65390428 13.4794827,9 11.6101342,9 Z" id="Fill-4" fill="#8EE7FF"></path>
                </g>
            </g>
        </g>
    </g>
</svg>