<?xml version="1.0" encoding="UTF-8"?>
<svg width="23px" height="25px" viewBox="0 0 23 25" version="1.1" xmlns="http://www.w3.org/2000/svg" xmlns:xlink="http://www.w3.org/1999/xlink">
    <!-- Generator: Sketch 51.3 (57544) - http://www.bohemiancoding.com/sketch -->
    <title>Group 8</title>
    <desc>Created with Sketch.</desc>
    <defs>
        <polygon id="path-1" points="0.0511111111 0.719764706 0.0511111111 13.9991765 22.5306296 13.9991765 22.5306296 0.719764706"></polygon>
    </defs>
    <g id="Page-1" stroke="none" stroke-width="1" fill="none" fill-rule="evenodd">
        <g id="Artboard-6" transform="translate(-247.000000, -86.000000)">
            <g id="Group-8" transform="translate(247.000000, 86.000000)">
                <g id="Group-5">
                    <g id="Group-4" transform="translate(1.000000, 15.000000)" stroke="#8EE7FF" stroke-linecap="square" stroke-width="0.2">
                        <path d="M1.56135289,5.5022807 L0.793266669,5.65589794 L0.711969278,5.67215742 L0.679450321,5.50956264 L0.760747713,5.49330316 L1.36072746,5.37330721 L0.234730001,4.6494517 L0.164990083,4.60461889 L0.254655692,4.46513906 L0.324395611,4.50997186 L1.52317377,5.28061496 L1.52317377,4.74552657 L1.52317377,4.66261918 L1.68898856,4.66261918 L1.68898856,4.74552657 L1.68898856,5.38721019 L2.52608478,5.92534347 L2.60465482,4.51108269 L2.57797556,4.52886886 L2.53198681,4.45988573 L2.20035722,3.96244135 L2.15436847,3.89345822 L2.29233472,3.80148073 L2.33832347,3.87046385 L2.61702004,4.2885087 L2.68400498,3.08277975 L2.68860386,3 L2.85416336,3.00919775 L2.84956448,3.0919775 L2.75430946,4.80656788 L3.20560473,4.3552726 L3.26422912,4.29664822 L3.38147788,4.41389698 L3.3228535,4.47252137 L2.82540911,4.96996575 L2.76678473,5.02859014 L2.74328067,5.00508608 L2.69213885,5.92563883 L3.51662799,5.46186369 L3.48462676,5.44586307 L3.52170408,5.37170844 L3.85333367,4.70844926 L3.89041098,4.63429463 L4.03872024,4.70844926 L4.00164293,4.78260389 L3.71890283,5.34808409 L4.02180801,5.17769992 L4.02826518,5.14541409 L4.06584377,5.15292981 L5.21336037,4.50745172 L5.28562043,4.46680544 L5.366913,4.61132556 L5.29465294,4.65197184 L4.31534828,5.20283071 L4.93863655,5.32748836 L5.01993394,5.34374784 L4.98741498,5.50634263 L4.90611759,5.49008315 L4.09357966,5.32757556 L2.77773877,6.06773606 L3.67333116,6.51553226 L3.73088247,6.49251173 L4.55995644,6.16088214 L4.63693403,6.13009111 L4.6985161,6.28404628 L4.62153851,6.31483732 L3.87176227,6.61474781 L5.29108397,7.32440866 L5.3652386,7.36148598 L5.29108397,7.50979524 L5.21692934,7.47271793 L3.51295131,6.62072891 L3.51295131,7.2327485 L3.51295131,7.3156559 L3.34713651,7.3156559 L3.34713651,7.2327485 L3.34713651,6.56948932 L3.34713651,6.53782151 L2.69167437,6.21009044 L2.76977692,7.61593631 L2.82540911,7.6715685 L3.3228535,8.16901289 L3.38147788,8.22763727 L3.26422912,8.34488604 L3.20560473,8.28626165 L2.78357089,7.86422781 L2.84956448,9.05211237 L2.85416336,9.13489212 L2.68860386,9.14408987 L2.68400498,9.06131012 L2.59084484,7.38442762 L2.16985147,7.94575212 L2.12010703,8.01207804 L1.98745519,7.91258916 L2.03719963,7.84626324 L2.53464402,7.18300406 L2.57655046,7.1271288 L2.52581141,6.21382586 L1.84399895,6.62291334 L1.68651316,7.2528565 L1.66640516,7.33328849 L1.50554118,7.29307249 L1.52564918,7.2126405 L1.64291897,6.74356132 L0.156403515,7.6354706 L0.0853110082,7.6781261 L0,7.53594109 L0.0710925069,7.49328558 L1.57466966,6.59113929 L0.75078957,6.31651259 L0.672136707,6.29029497 L0.724571949,6.13298925 L0.803224812,6.15920687 L1.76193838,6.47877806 L2.4438748,6.06961621 L1.56135289,5.5022807 Z" id="Combined-Shape"></path>
                        <path d="M9.56135289,2.5022807 L8.79326667,2.65589794 L8.71196928,2.67215742 L8.67945032,2.50956264 L8.76074771,2.49330316 L9.36072746,2.37330721 L8.23473,1.6494517 L8.16499008,1.60461889 L8.25465569,1.46513906 L8.32439561,1.50997186 L9.52317377,2.28061496 L9.52317377,1.74552657 L9.52317377,1.66261918 L9.68898856,1.66261918 L9.68898856,1.74552657 L9.68898856,2.38721019 L10.5260848,2.92534347 L10.6046548,1.51108269 L10.5779756,1.52886886 L10.5319868,1.45988573 L10.2003572,0.962441349 L10.1543685,0.893458225 L10.2923347,0.801480725 L10.3383235,0.87046385 L10.61702,1.2885087 L10.684005,0.0827797494 L10.6886039,0 L10.8541634,0.00919774993 L10.8495645,0.0919774993 L10.7543095,1.80656788 L11.2056047,1.3552726 L11.2642291,1.29664822 L11.3814779,1.41389698 L11.3228535,1.47252137 L10.8254091,1.96996575 L10.7667847,2.02859014 L10.7432807,2.00508608 L10.6921389,2.92563883 L11.516628,2.46186369 L11.4846268,2.44586307 L11.5217041,2.37170844 L11.8533337,1.70844926 L11.890411,1.63429463 L12.0387202,1.70844926 L12.0016429,1.78260389 L11.7189028,2.34808409 L12.021808,2.17769992 L12.0282652,2.14541409 L12.0658438,2.15292981 L13.2133604,1.50745172 L13.2856204,1.46680544 L13.366913,1.61132556 L13.2946529,1.65197184 L12.3153483,2.20283071 L12.9386365,2.32748836 L13.0199339,2.34374784 L12.987415,2.50634263 L12.9061176,2.49008315 L12.0935797,2.32757556 L10.7777388,3.06773606 L11.6733312,3.51553226 L11.7308825,3.49251173 L12.5599564,3.16088214 L12.636934,3.13009111 L12.6985161,3.28404628 L12.6215385,3.31483732 L11.8717623,3.61474781 L13.291084,4.32440866 L13.3652386,4.36148598 L13.291084,4.50979524 L13.2169293,4.47271793 L11.5129513,3.62072891 L11.5129513,4.2327485 L11.5129513,4.3156559 L11.3471365,4.3156559 L11.3471365,4.2327485 L11.3471365,3.56948932 L11.3471365,3.53782151 L10.6916744,3.21009044 L10.7697769,4.61593631 L10.8254091,4.6715685 L11.3228535,5.16901289 L11.3814779,5.22763727 L11.2642291,5.34488604 L11.2056047,5.28626165 L10.7835709,4.86422781 L10.8495645,6.05211237 L10.8541634,6.13489212 L10.6886039,6.14408987 L10.684005,6.06131012 L10.5908448,4.38442762 L10.1698515,4.94575212 L10.120107,5.01207804 L9.98745519,4.91258916 L10.0371996,4.84626324 L10.534644,4.18300406 L10.5765505,4.1271288 L10.5258114,3.21382586 L9.84399895,3.62291334 L9.68651316,4.2528565 L9.66640516,4.33328849 L9.50554118,4.29307249 L9.52564918,4.2126405 L9.64291897,3.74356132 L8.15640352,4.6354706 L8.08531101,4.6781261 L8,4.53594109 L8.07109251,4.49328558 L9.57466966,3.59113929 L8.75078957,3.31651259 L8.67213671,3.29029497 L8.72457195,3.13298925 L8.80322481,3.15920687 L9.76193838,3.47877806 L10.4438748,3.06961621 L9.56135289,2.5022807 Z" id="Combined-Shape-Copy"></path>
                        <path d="M16.5613529,4.5022807 L15.7932667,4.65589794 L15.7119693,4.67215742 L15.6794503,4.50956264 L15.7607477,4.49330316 L16.3607275,4.37330721 L15.23473,3.6494517 L15.1649901,3.60461889 L15.2546557,3.46513906 L15.3243956,3.50997186 L16.5231738,4.28061496 L16.5231738,3.74552657 L16.5231738,3.66261918 L16.6889886,3.66261918 L16.6889886,3.74552657 L16.6889886,4.38721019 L17.5260848,4.92534347 L17.6046548,3.51108269 L17.5779756,3.52886886 L17.5319868,3.45988573 L17.2003572,2.96244135 L17.1543685,2.89345822 L17.2923347,2.80148073 L17.3383235,2.87046385 L17.61702,3.2885087 L17.684005,2.08277975 L17.6886039,2 L17.8541634,2.00919775 L17.8495645,2.0919775 L17.7543095,3.80656788 L18.2056047,3.3552726 L18.2642291,3.29664822 L18.3814779,3.41389698 L18.3228535,3.47252137 L17.8254091,3.96996575 L17.7667847,4.02859014 L17.7432807,4.00508608 L17.6921389,4.92563883 L18.516628,4.46186369 L18.4846268,4.44586307 L18.5217041,4.37170844 L18.8533337,3.70844926 L18.890411,3.63429463 L19.0387202,3.70844926 L19.0016429,3.78260389 L18.7189028,4.34808409 L19.021808,4.17769992 L19.0282652,4.14541409 L19.0658438,4.15292981 L20.2133604,3.50745172 L20.2856204,3.46680544 L20.366913,3.61132556 L20.2946529,3.65197184 L19.3153483,4.20283071 L19.9386365,4.32748836 L20.0199339,4.34374784 L19.987415,4.50634263 L19.9061176,4.49008315 L19.0935797,4.32757556 L17.7777388,5.06773606 L18.6733312,5.51553226 L18.7308825,5.49251173 L19.5599564,5.16088214 L19.636934,5.13009111 L19.6985161,5.28404628 L19.6215385,5.31483732 L18.8717623,5.61474781 L20.291084,6.32440866 L20.3652386,6.36148598 L20.291084,6.50979524 L20.2169293,6.47271793 L18.5129513,5.62072891 L18.5129513,6.2327485 L18.5129513,6.3156559 L18.3471365,6.3156559 L18.3471365,6.2327485 L18.3471365,5.56948932 L18.3471365,5.53782151 L17.6916744,5.21009044 L17.7697769,6.61593631 L17.8254091,6.6715685 L18.3228535,7.16901289 L18.3814779,7.22763727 L18.2642291,7.34488604 L18.2056047,7.28626165 L17.7835709,6.86422781 L17.8495645,8.05211237 L17.8541634,8.13489212 L17.6886039,8.14408987 L17.684005,8.06131012 L17.5908448,6.38442762 L17.1698515,6.94575212 L17.120107,7.01207804 L16.9874552,6.91258916 L17.0371996,6.84626324 L17.534644,6.18300406 L17.5765505,6.1271288 L17.5258114,5.21382586 L16.8439989,5.62291334 L16.6865132,6.2528565 L16.6664052,6.33328849 L16.5055412,6.29307249 L16.5256492,6.2126405 L16.642919,5.74356132 L15.1564035,6.6354706 L15.085311,6.6781261 L15,6.53594109 L15.0710925,6.49328558 L16.5746697,5.59113929 L15.7507896,5.31651259 L15.6721367,5.29029497 L15.7245719,5.13298925 L15.8032248,5.15920687 L16.7619384,5.47877806 L17.4438748,5.06961621 L16.5613529,4.5022807 Z" id="Combined-Shape-Copy-2"></path>
                    </g>
                    <g id="Group-3">
                        <mask id="mask-2" fill="white">
                            <use xlink:href="#path-1"></use>
                        </mask>
                        <g id="Clip-2"></g>
                        <path d="M17.4561481,13.9991765 L4.38874074,13.9991765 C1.96948148,13.9991765 0,12.0976471 0,9.75635294 C0,7.44964706 1.91325926,5.56458824 4.28907407,5.51270588 C5.13411111,2.67894118 7.80637037,0.719764706 10.8781481,0.719764706 C13.4268889,0.719764706 15.7192222,2.05470588 16.9237407,4.21976471 C17.1137037,4.20082353 17.2866296,4.19094118 17.4561481,4.19094118 C20.2510741,4.19094118 22.5306296,6.39141176 22.5306296,9.09341176 C22.5306296,11.7987059 20.2544815,13.9991765 17.4561481,13.9991765 Z M4.38874074,6.17235294 C2.346,6.17235294 0.682333333,7.78070588 0.682333333,9.75635294 C0.682333333,11.7344706 2.346,13.3395294 4.38874074,13.3395294 L17.4561481,13.3395294 C19.8788148,13.3395294 21.8482963,11.4355294 21.8482963,9.09341176 C21.8482963,6.75129412 19.8788148,4.85058824 17.4561481,4.85058824 C17.2534074,4.85058824 17.037037,4.86623529 16.7806296,4.90494118 C16.6341111,4.92470588 16.491,4.85388235 16.4245556,4.72458824 C15.3733704,2.66247059 13.2471481,1.37941176 10.8781481,1.37941176 C8.02955556,1.37941176 5.56003704,3.25129412 4.87855556,5.92776471 C4.84192593,6.07929412 4.70222222,6.17235294 4.53866667,6.17894118 L4.38874074,6.17235294 Z" id="Fill-1" fill="#8EE7FF" mask="url(#mask-2)"></path>
                    </g>
                </g>
                <path d="M17.9152013,14 C17.7257057,14 17.575475,13.8488665 17.575475,13.665827 C17.575475,13.4785894 17.7257057,13.3274559 17.9152013,13.3274559 C20.3427936,13.3274559 22.3162794,11.3862301 22.3162794,8.99832074 C22.3162794,6.61376994 20.3427936,4.67254408 17.9152013,4.67254408 C16.6416543,4.67254408 15.4346868,5.21326616 14.5973211,6.15449202 C14.474405,6.29554996 14.2575948,6.30898405 14.117607,6.18723762 C13.9742049,6.06633081 13.9605476,5.85306465 14.0843173,5.71200672 C15.0480134,4.62300588 16.44533,4 17.9152013,4 C20.7192241,4 23,6.24349286 23,8.99832074 C23,11.7565071 20.7192241,14 17.9152013,14 Z" id="Fill-4" fill="#8EE7FF"></path>
            </g>
        </g>
    </g>
</svg>