<svg width="47" height="49" viewBox="0 0 47 49" fill="none" xmlns="http://www.w3.org/2000/svg">
<path fill-rule="evenodd" clip-rule="evenodd" d="M33.179 35.4117C34.2294 35.0802 34.5982 38.768 36.8972 38.9644C41.6485 39.37 45.2709 42.5279 46.9134 47.0675C47.2365 47.9612 46.6217 48.2681 45.6289 48.6408C44.6099 49.0233 43.2832 49.2723 43.1526 48.4316C42.6384 44.7562 40.4445 41.0002 36.6345 40.4719C34.5024 40.1773 33.7978 43.7172 32.8122 43.2581C32.3605 43.0474 33.2665 41.8233 33.4271 39.6072C33.5783 37.51 32.7955 35.5325 33.179 35.4117Z" fill="#00582E"/>
<path fill-rule="evenodd" clip-rule="evenodd" d="M26.9198 0.988061C42.7308 4.68313 45.2125 19.6142 41.3191 28.3507C41.2209 28.667 40.9386 28.7672 40.723 28.7102C40.5315 28.6596 40.3247 28.4353 40.3866 28.0788C41.6437 20.3007 39.0284 12.2481 31.2754 9.23896C24.4401 6.58588 15.2355 9.37893 13.2959 17.2174C11.4113 24.8285 16.6404 30.9587 24.2231 32.1607C27.1344 32.6218 29.4433 32.6798 31.1212 34.9425C33.024 37.5086 33.0328 41.4036 30.7563 43.9482C28.5894 46.3719 25.5017 46.4534 22.4799 46.3091C8.28932 45.63 -2.02396 33.6344 0.337444 19.13C2.30307 7.05637 13.9731 -2.03772 26.9198 0.988061Z" fill="#E31E24"/>
</svg>
