<svg width="252" height="202" viewBox="0 0 252 202" fill="none" xmlns="http://www.w3.org/2000/svg">
<rect width="252" height="202" rx="16" fill="url(#paint0_linear_102_8)"/>
<mask id="mask0_102_8" style="mask-type:alpha" maskUnits="userSpaceOnUse" x="0" y="0" width="252" height="202">
<rect width="252" height="202" fill="url(#paint1_linear_102_8)"/>
</mask>
<g mask="url(#mask0_102_8)">
<path d="M218.75 24.4032C218.75 25.1782 218.134 25.8065 217.375 25.8065C216.616 25.8065 216 25.1782 216 24.4032C216 23.6282 216.616 23 217.375 23C218.134 23 218.75 23.6282 218.75 24.4032Z" fill="white"/>
<path d="M225.167 24.4032C225.167 25.1782 224.551 25.8065 223.792 25.8065C223.032 25.8065 222.417 25.1782 222.417 24.4032C222.417 23.6282 223.032 23 223.792 23C224.551 23 225.167 23.6282 225.167 24.4032Z" fill="white"/>
<path d="M231.583 24.4032C231.583 25.1782 230.968 25.8065 230.208 25.8065C229.449 25.8065 228.833 25.1782 228.833 24.4032C228.833 23.6282 229.449 23 230.208 23C230.968 23 231.583 23.6282 231.583 24.4032Z" fill="white"/>
<path d="M238 24.4032C238 25.1782 237.384 25.8065 236.625 25.8065C235.866 25.8065 235.25 25.1782 235.25 24.4032C235.25 23.6282 235.866 23 236.625 23C237.384 23 238 23.6282 238 24.4032Z" fill="white"/>
<path d="M218.75 30.9516C218.75 31.7266 218.134 32.3548 217.375 32.3548C216.616 32.3548 216 31.7266 216 30.9516C216 30.1766 216.616 29.5484 217.375 29.5484C218.134 29.5484 218.75 30.1766 218.75 30.9516Z" fill="white"/>
<path d="M225.167 30.9516C225.167 31.7266 224.551 32.3548 223.792 32.3548C223.032 32.3548 222.417 31.7266 222.417 30.9516C222.417 30.1766 223.032 29.5484 223.792 29.5484C224.551 29.5484 225.167 30.1766 225.167 30.9516Z" fill="white"/>
<path d="M231.583 30.9516C231.583 31.7266 230.968 32.3548 230.208 32.3548C229.449 32.3548 228.833 31.7266 228.833 30.9516C228.833 30.1766 229.449 29.5484 230.208 29.5484C230.968 29.5484 231.583 30.1766 231.583 30.9516Z" fill="white"/>
<path d="M238 30.9516C238 31.7266 237.384 32.3548 236.625 32.3548C235.866 32.3548 235.25 31.7266 235.25 30.9516C235.25 30.1766 235.866 29.5484 236.625 29.5484C237.384 29.5484 238 30.1766 238 30.9516Z" fill="white"/>
<path d="M218.75 37.5C218.75 38.275 218.134 38.9032 217.375 38.9032C216.616 38.9032 216 38.275 216 37.5C216 36.725 216.616 36.0968 217.375 36.0968C218.134 36.0968 218.75 36.725 218.75 37.5Z" fill="white"/>
<path d="M225.167 37.5C225.167 38.275 224.551 38.9032 223.792 38.9032C223.032 38.9032 222.417 38.275 222.417 37.5C222.417 36.725 223.032 36.0968 223.792 36.0968C224.551 36.0968 225.167 36.725 225.167 37.5Z" fill="white"/>
<path d="M231.583 37.5C231.583 38.275 230.968 38.9032 230.208 38.9032C229.449 38.9032 228.833 38.275 228.833 37.5C228.833 36.725 229.449 36.0968 230.208 36.0968C230.968 36.0968 231.583 36.725 231.583 37.5Z" fill="white"/>
<path d="M238 37.5C238 38.275 237.384 38.9032 236.625 38.9032C235.866 38.9032 235.25 38.275 235.25 37.5C235.25 36.725 235.866 36.0968 236.625 36.0968C237.384 36.0968 238 36.725 238 37.5Z" fill="white"/>
<path d="M218.75 44.0484C218.75 44.8234 218.134 45.4516 217.375 45.4516C216.616 45.4516 216 44.8234 216 44.0484C216 43.2734 216.616 42.6452 217.375 42.6452C218.134 42.6452 218.75 43.2734 218.75 44.0484Z" fill="white"/>
<path d="M225.167 44.0484C225.167 44.8234 224.551 45.4516 223.792 45.4516C223.032 45.4516 222.417 44.8234 222.417 44.0484C222.417 43.2734 223.032 42.6452 223.792 42.6452C224.551 42.6452 225.167 43.2734 225.167 44.0484Z" fill="white"/>
<path d="M231.583 44.0484C231.583 44.8234 230.968 45.4516 230.208 45.4516C229.449 45.4516 228.833 44.8234 228.833 44.0484C228.833 43.2734 229.449 42.6452 230.208 42.6452C230.968 42.6452 231.583 43.2734 231.583 44.0484Z" fill="white"/>
<path d="M238 44.0484C238 44.8234 237.384 45.4516 236.625 45.4516C235.866 45.4516 235.25 44.8234 235.25 44.0484C235.25 43.2734 235.866 42.6452 236.625 42.6452C237.384 42.6452 238 43.2734 238 44.0484Z" fill="white"/>
<path d="M218.75 50.5968C218.75 51.3718 218.134 52 217.375 52C216.616 52 216 51.3718 216 50.5968C216 49.8218 216.616 49.1935 217.375 49.1935C218.134 49.1935 218.75 49.8218 218.75 50.5968Z" fill="white"/>
<path d="M225.167 50.5968C225.167 51.3718 224.551 52 223.792 52C223.032 52 222.417 51.3718 222.417 50.5968C222.417 49.8218 223.032 49.1935 223.792 49.1935C224.551 49.1935 225.167 49.8218 225.167 50.5968Z" fill="white"/>
<path d="M231.583 50.5968C231.583 51.3718 230.968 52 230.208 52C229.449 52 228.833 51.3718 228.833 50.5968C228.833 49.8218 229.449 49.1935 230.208 49.1935C230.968 49.1935 231.583 49.8218 231.583 50.5968Z" fill="white"/>
<path d="M238 50.5968C238 51.3718 237.384 52 236.625 52C235.866 52 235.25 51.3718 235.25 50.5968C235.25 49.8218 235.866 49.1935 236.625 49.1935C237.384 49.1935 238 49.8218 238 50.5968Z" fill="white"/>
</g>
<defs>
<linearGradient id="paint0_linear_102_8" x1="126" y1="8.12458e-07" x2="269.182" y2="206.49" gradientUnits="userSpaceOnUse">
<stop stop-color="#F8B602"/>
<stop offset="1" stop-color="#F0C868"/>
<stop offset="1" stop-color="#F0C868" stop-opacity="0"/>
</linearGradient>
<linearGradient id="paint1_linear_102_8" x1="126" y1="8.12458e-07" x2="269.182" y2="206.49" gradientUnits="userSpaceOnUse">
<stop stop-color="#5ECFFF"/>
<stop offset="1" stop-color="#64F6FF"/>
</linearGradient>
</defs>
</svg>
