<svg width="108" height="107" viewBox="0 0 108 107" fill="none" xmlns="http://www.w3.org/2000/svg">
<rect x="0.797913" y="0.29792" width="106.404" height="106.404" rx="14.1872" fill="#8D5252" fill-opacity="0.04"/>
<circle opacity="0.1" cx="54" cy="53.5" r="29.9262" fill="#F55349"/>
<ellipse opacity="0.14" cx="54" cy="90.9077" rx="41.5641" ry="2.49385" fill="#F55349"/>
<path d="M59.9113 61.9306L74.3757 29.1157L81.2337 29.1157L64.5665 61.9306H59.9113Z" fill="#F55349"/>
<g style="mix-blend-mode:multiply" opacity="0.4">
<path d="M59.9113 61.9306L74.3757 29.1157L77.6454 29.1157L61.1933 61.9306H59.9113Z" fill="#F55349"/>
</g>
<path d="M46.5818 73.2153C53.939 73.2153 59.9031 67.2511 59.9031 59.894C59.9031 52.5368 53.939 46.5726 46.5818 46.5726C39.2247 46.5726 33.2605 52.5368 33.2605 59.894C33.2605 67.2511 39.2247 73.2153 46.5818 73.2153Z" fill="#FFC34F"/>
<g style="mix-blend-mode:multiply" opacity="0.36">
<path d="M46.5814 68.6016C51.3905 68.6016 55.2891 64.703 55.2891 59.8939C55.2891 55.0848 51.3905 51.1862 46.5814 51.1862C41.7723 51.1862 37.8737 55.0848 37.8737 59.8939C37.8737 64.703 41.7723 68.6016 46.5814 68.6016Z" fill="#FFC34F"/>
</g>
<path d="M46.5817 63.5724C48.6132 63.5724 50.2601 61.9255 50.2601 59.894C50.2601 57.8624 48.6132 56.2155 46.5817 56.2155C44.5501 56.2155 42.9032 57.8624 42.9032 59.894C42.9032 61.9255 44.5501 63.5724 46.5817 63.5724Z" fill="#FFC34F"/>
<path d="M52.5253 87.3471C38.6637 87.3471 27.4206 76.104 27.4206 62.2423V61.9514L77.6508 61.9514V62.2423C77.6301 76.104 66.387 87.3471 52.5253 87.3471Z" fill="#F55349"/>
<g style="mix-blend-mode:multiply" opacity="0.4">
<path d="M42.8816 62.2423V61.9514H27.399V62.2423C27.399 76.104 38.6421 87.3471 52.5037 87.3471C55.2054 87.3471 57.8031 86.9106 60.2346 86.1209C50.1761 82.8581 42.8816 73.4023 42.8816 62.2423Z" fill="#F55349"/>
</g>
<path d="M62.1476 85.0819H42.0929V90.7554H62.1476V85.0819Z" fill="#6BB229"/>
<g style="mix-blend-mode:multiply" opacity="0.26">
<path d="M44.3941 88.9681L42.0886 85.0814V90.7548H62.1432L44.3941 88.9681Z" fill="#6BB229"/>
</g>
<path d="M75.5308 72.28C76.2374 70.659 76.7777 68.9549 77.131 67.1884H27.8983C28.2516 68.9549 28.7919 70.659 29.4985 72.28H75.5308Z" fill="#FFC34F"/>
<g style="mix-blend-mode:multiply" opacity="0.36">
<path d="M44.9811 72.28C44.2746 70.659 43.7342 68.9549 43.3809 67.1884H27.8983C28.21 68.747 28.6672 70.2433 29.2491 71.6773C29.3322 71.8851 29.4154 72.0929 29.4985 72.28H44.9811Z" fill="#FFC34F"/>
</g>
<path d="M59.7352 49.5029C59.4442 49.5029 59.1741 49.4198 58.9039 49.2535C58.2389 48.7963 58.0726 47.9027 58.5298 47.2377C61.0445 43.58 65.2009 41.3771 69.6482 41.3771H75.0308C78.3975 41.3771 81.4109 39.5067 82.9072 36.4726L83.3436 35.5997C83.6969 34.8723 84.5698 34.5814 85.2971 34.9347C86.0245 35.288 86.3155 36.1608 85.9622 36.8882L85.5257 37.761C83.5307 41.772 79.5197 44.2658 75.0308 44.2658H69.6482C66.1568 44.2658 62.8941 45.9907 60.9198 48.8587C60.6496 49.2743 60.1924 49.5029 59.7352 49.5029Z" fill="#FFC34F"/>
<g style="mix-blend-mode:multiply" opacity="0.36">
<path d="M59.7352 49.5029C59.4442 49.5029 59.1741 49.4198 58.9039 49.2535C58.2389 48.7963 58.0726 47.9027 58.5298 47.2377C61.0445 43.58 65.2009 41.3771 69.6482 41.3771H75.0308C78.3975 41.3771 81.4109 39.5067 82.9072 36.4726L83.3436 35.5997C83.6969 34.8723 84.5698 34.5814 85.2971 34.9347C86.0245 35.288 86.3155 36.1608 85.9622 36.8882L85.5257 37.761C83.5307 41.772 79.5197 44.2658 75.0308 44.2658H69.6482C66.1568 44.2658 62.8941 45.9907 60.9198 48.8587C60.6496 49.2743 60.1924 49.5029 59.7352 49.5029Z" fill="#FFC34F"/>
</g>
<path d="M69.8981 59.3536C69.3162 59.3536 68.7135 59.2705 68.1316 59.1042C66.2196 58.5431 64.7441 57.1507 64.0583 55.2803L62.7282 51.685C62.3957 50.7706 61.6684 50.0432 60.7539 49.7107C59.8395 49.3782 58.8212 49.4613 57.9691 49.9601L55.9948 51.1031C55.2883 51.498 54.4154 51.2694 53.9998 50.5628C53.6049 49.8562 53.8335 48.9833 54.5401 48.5677L56.5144 47.4247C58.1146 46.5103 60.0058 46.344 61.7307 46.9675C63.4556 47.5909 64.8064 48.9418 65.4507 50.6667L66.7807 54.262C67.1548 55.2595 67.9445 56.0077 68.9629 56.2986C69.9812 56.5896 71.0411 56.4025 71.8931 55.7583C73.431 54.5945 75.4884 54.1996 77.338 54.74L83.0323 56.361C83.8013 56.5896 84.2585 57.3793 84.0299 58.1482C83.8013 58.9172 83.0116 59.3744 82.2426 59.1458L76.5483 57.5248C75.5508 57.2338 74.4701 57.4417 73.6388 58.0651C72.5374 58.9172 71.2281 59.3536 69.8981 59.3536Z" fill="#FFC34F"/>
</svg>
