<svg width="108" height="107" viewBox="0 0 108 107" fill="none" xmlns="http://www.w3.org/2000/svg">
<rect x="0.797913" y="0.29792" width="106.404" height="106.404" rx="14.1872" fill="#8D5252" fill-opacity="0.04"/>
<ellipse opacity="0.14" cx="54" cy="90.9077" rx="41.5641" ry="2.49385" fill="#F55349"/>
<circle opacity="0.1" cx="54" cy="53.5" r="29.9262" fill="#F55349"/>
<path d="M69.5452 50.6736L67.6332 40.9061C66.903 37.5322 66.6246 34.8682 66.5234 32.7179C66.4967 32.3093 66.684 31.9007 66.7826 31.492C66.9895 30.6347 65.9737 30.2241 65.0918 30.2241L57.1824 30.2241C56.7414 30.2241 56.248 30.3786 56.1426 30.8068C55.9921 31.4183 56.4398 32.0146 56.3849 32.7179C56.2136 34.9119 55.8425 37.6246 55.2887 40.8437L53.5638 50.6736C50.5088 52.9389 48.5137 56.5965 48.5137 60.6906V89.0789C48.5137 89.9971 49.2581 90.7415 50.1763 90.7415H72.9378C73.854 90.7415 74.5975 90.0002 74.6004 89.0841L74.6899 60.298C74.6899 56.1832 72.6001 52.9389 69.5452 50.6736Z" fill="#6BB229"/>
<path d="M74.6897 60.2981H59.9113L59.9113 82.4656H74.6897" fill="#FFC34F"/>
<g style="mix-blend-mode:multiply" opacity="0.36">
<path d="M65.7653 60.2981H59.9113L59.9113 82.4656H65.8227" fill="#FFC34F"/>
</g>
<g style="mix-blend-mode:multiply" opacity="0.36">
<path d="M57.1824 30.2241H60.6501C62.3127 30.2241 62.3127 31.8866 60.6501 31.8867C60.9881 39.2716 60.6501 44.3559 60.9622 50.6736C57.8864 52.9389 55.9121 56.5758 55.9121 60.6906L55.9121 90.7415H50.1763C49.2581 90.7415 48.5137 89.9971 48.5137 89.0789V60.6906C48.5137 56.5965 50.5088 52.9389 53.5638 50.6736L55.2887 40.8437C55.8407 37.6353 56.26 34.7064 56.3773 32.7179C56.4237 31.9319 55.9909 31.3837 56.1371 30.8036C56.2448 30.376 56.7414 30.2241 57.1824 30.2241Z" fill="#FFC34F"/>
</g>
<path d="M47.9361 89.3846C47.7889 90.1713 47.1022 90.7414 46.3019 90.7414H37.839C37.0393 90.7414 36.3528 90.1721 36.2051 89.3861L32.7155 70.8277C32.523 69.8043 33.308 68.8579 34.3494 68.8579H49.7738C50.8146 68.8579 51.5994 69.8033 51.4081 70.8262L47.9361 89.3846Z" fill="#F55349"/>
<g style="mix-blend-mode:multiply" opacity="0.4">
<path d="M46.3021 90.7414C47.1023 90.7414 47.789 90.1714 47.9363 89.3849L50.0722 77.9813H34.0492L36.2041 89.3875C36.3525 90.1728 37.0386 90.7414 37.8378 90.7414H46.3021Z" fill="#F55349"/>
</g>
</svg>
