<svg width="108" height="107" viewBox="0 0 108 107" fill="none" xmlns="http://www.w3.org/2000/svg">
<rect x="0.797913" y="0.29792" width="106.404" height="106.404" rx="14.1872" fill="#8D5252" fill-opacity="0.04"/>
<circle opacity="0.1" cx="54" cy="55.1626" r="29.9262" fill="#F55349"/>
<ellipse opacity="0.14" cx="54" cy="90.9077" rx="41.5641" ry="2.49385" fill="#F55349"/>
<path d="M76.1508 70.2422C74.7894 68.6122 72.897 67.5143 70.8063 67.1414C68.7156 66.7685 66.5604 67.1444 64.7194 68.2032C62.8784 69.262 61.4696 70.9358 60.7404 72.9304C60.0113 74.925 60.0086 77.1128 60.7328 79.1092C61.4569 81.1057 62.8616 82.7829 64.7 83.8463C66.5383 84.9096 68.6926 85.2909 70.7843 84.9232C72.8759 84.5555 74.771 83.4623 76.1364 81.8357C77.5019 80.2092 78.2503 78.1534 78.2501 76.0297C78.2518 73.9138 77.5086 71.8649 76.1508 70.2422ZM69.2209 81.0459C68.2292 81.0456 67.2599 80.7512 66.4355 80.2001C65.6111 79.649 64.9686 78.8658 64.5893 77.9495C64.2099 77.0333 64.1108 76.0252 64.3043 75.0526C64.4979 74.08 64.9754 73.1866 65.6766 72.4854C66.3778 71.7842 67.2712 71.3066 68.2438 71.1131C69.2164 70.9196 70.2245 71.0187 71.1408 71.3981C72.057 71.7774 72.8402 72.4199 73.3913 73.2443C73.9425 74.0687 74.2368 75.038 74.2371 76.0297C74.2371 77.36 73.7086 78.6359 72.7679 79.5767C71.8272 80.5174 70.5513 81.0459 69.2209 81.0459Z" fill="#FFC34F"/>
<g style="mix-blend-mode:multiply" opacity="0.36">
<path d="M78.2504 76.0297C78.2501 78.1578 77.4981 80.2175 76.1272 81.8453C74.7563 83.4731 72.8546 84.5645 70.7574 84.9268C68.6603 85.2891 66.5026 84.8991 64.665 83.8256C62.8274 82.7522 61.428 81.0642 60.7136 79.0595C61.9526 78.5662 63.1854 78.032 64.4118 77.4568C64.6265 78.1816 65.0022 78.8486 65.5109 79.4078C66.0195 79.967 66.648 80.404 67.3493 80.6862C68.0506 80.9683 68.8067 81.0883 69.5609 81.0372C70.3151 80.9861 71.048 80.7652 71.7048 80.3909C72.3617 80.0167 72.9254 79.4989 73.354 78.8761C73.7825 78.2534 74.0648 77.5419 74.1796 76.7947C74.2945 76.0475 74.239 75.284 74.0173 74.5613C73.7956 73.8386 73.4134 73.1753 72.8993 72.6211C74.0017 71.8724 75.0856 71.0795 76.1511 70.2422C77.5101 71.8642 78.2535 73.9136 78.2504 76.0297Z" fill="#FFC34F"/>
</g>
<path d="M45.0982 60.9442C43.3124 60.9442 41.5667 61.4737 40.0818 62.4659C38.597 63.458 37.4397 64.8682 36.7563 66.5181C36.0729 68.1679 35.8941 69.9834 36.2425 71.7349C36.5909 73.4864 37.4508 75.0953 38.7136 76.358C39.9763 77.6208 41.5852 78.4808 43.3367 78.8292C45.0882 79.1775 46.9037 78.9987 48.5536 78.3153C50.2034 77.6319 51.6136 76.4746 52.6058 74.9898C53.5979 73.5049 54.1275 71.7592 54.1275 69.9734C54.1275 67.5787 53.1762 65.2821 51.4829 63.5888C49.7895 61.8954 47.4929 60.9442 45.0982 60.9442ZM45.0982 74.9896C44.1061 74.9896 43.1363 74.6955 42.3113 74.1443C41.4864 73.5931 40.8435 72.8096 40.4638 71.893C40.0841 70.9764 39.9848 69.9678 40.1784 68.9948C40.3719 68.0217 40.8497 67.1279 41.5512 66.4264C42.2527 65.7248 43.1465 65.2471 44.1196 65.0535C45.0927 64.86 46.1013 64.9593 47.0179 65.339C47.9345 65.7187 48.7179 66.3616 49.2691 67.1865C49.8203 68.0114 50.1145 68.9813 50.1145 69.9734C50.1145 71.3038 49.586 72.5797 48.6452 73.5204C47.7045 74.4612 46.4286 74.9896 45.0982 74.9896Z" fill="#FFC34F"/>
<g style="mix-blend-mode:multiply" opacity="0.36">
<path d="M54.1943 70.0413C54.194 72.1695 53.442 74.2292 52.0711 75.857C50.7002 77.4848 48.7985 78.5762 46.7014 78.9385C44.6042 79.3008 42.4465 78.9108 40.6089 77.8373C38.7713 76.7639 37.3719 75.0759 36.6575 73.0712C37.8965 72.5779 39.1293 72.0437 40.3558 71.4685C40.5704 72.1933 40.9461 72.8603 41.4548 73.4195C41.9634 73.9787 42.5919 74.4157 43.2932 74.6979C43.9945 74.98 44.7506 75.1 45.5048 75.0489C46.259 74.9978 46.9919 74.7769 47.6488 74.4026C48.3056 74.0284 48.8693 73.5106 49.2979 72.8878C49.7264 72.2651 50.0087 71.5535 50.1235 70.8064C50.2384 70.0592 50.1829 69.2957 49.9612 68.573C49.7395 67.8503 49.3573 67.187 48.8432 66.6328C49.9456 65.8841 51.0295 65.0911 52.095 64.2538C53.454 65.8759 54.1974 67.9253 54.1943 70.0413Z" fill="#FFC34F"/>
</g>
<path d="M26.394 68.1712C26.7592 68.3603 27.0377 68.6826 27.1719 69.0713C27.3061 69.46 27.2858 69.8855 27.1151 70.2596C26.793 70.9276 26.6471 71.6668 26.6911 72.4071C26.7352 73.1473 26.9678 73.864 27.3669 74.4891C27.766 75.1141 28.3183 75.6267 28.9712 75.9782C29.6242 76.3297 30.3562 76.5084 31.0977 76.4973C31.1177 76.4973 31.1375 76.4966 31.1573 76.4961C31.3706 76.4913 31.5826 76.5298 31.7806 76.6092C31.9786 76.6886 32.1585 76.8073 32.3094 76.9582C32.4602 77.109 32.579 77.2888 32.6584 77.4868C32.7379 77.6848 32.7764 77.8969 32.7717 78.1102C32.7704 78.152 32.7698 78.1941 32.7698 78.2366C32.7702 78.895 32.9202 79.5448 33.2082 80.1369C33.4963 80.729 33.915 81.248 34.4328 81.6547C34.9505 82.0615 35.5539 82.3455 36.1974 82.4852C36.8408 82.6249 37.5076 82.6168 38.1474 82.4614C39.9494 82.0435 41.8123 81.9565 43.6454 82.2047L46.6816 82.5843L46.302 79.5481C46.0539 77.7148 46.1409 75.8518 46.5588 74.0496C46.7141 73.4098 46.7222 72.7431 46.5824 72.0997C46.4427 71.4563 46.1587 70.8531 45.752 70.3353C45.3452 69.8176 44.8263 69.399 44.2342 69.1109C43.6422 68.8229 42.9925 68.673 42.3341 68.6725C42.2919 68.6725 42.2496 68.6725 42.2076 68.6743C41.9943 68.679 41.7823 68.6404 41.5844 68.561C41.3864 68.4815 41.2066 68.3627 41.0558 68.2119C40.905 68.0611 40.7862 67.8813 40.7068 67.6833C40.6273 67.4854 40.5887 67.2734 40.5934 67.0601C40.5934 67.0403 40.5944 67.0204 40.5946 67.0003C40.6057 66.2588 40.427 65.5268 40.0756 64.8738C39.7241 64.2209 39.2115 63.6686 38.5864 63.2696C37.9614 62.8705 37.2447 62.6379 36.5045 62.5938C35.7642 62.5497 35.025 62.6957 34.357 63.0178C33.9829 63.1885 33.5574 63.2089 33.1687 63.0746C32.7799 62.9404 32.4576 62.6619 32.2685 62.2967C31.9508 61.6944 31.496 61.1751 30.9409 60.7808C30.3858 60.3864 29.7458 60.1279 29.0725 60.0262C28.3991 59.9244 27.7113 59.9822 27.0645 60.1949C26.4176 60.4077 25.8297 60.7694 25.3482 61.2509C24.8667 61.7324 24.505 62.3203 24.2923 62.9671C24.0795 63.614 24.0217 64.3018 24.1235 64.9751C24.2252 65.6485 24.4837 66.2885 24.8781 66.8436C25.2725 67.3987 25.7917 67.8535 26.394 68.1712Z" fill="#6BB229"/>
<g style="mix-blend-mode:multiply" opacity="0.36">
<path d="M50.8686 85.3528L42.1332 76.6173V71.0134H40.1267V74.6108L37.1169 71.6011V65.9972H35.1104V69.5946L30.8705 65.3546L29.4516 66.7734L33.6916 71.0134H30.0942V73.0199H35.6981L38.7078 76.0297H35.1104V78.0362H40.7143L49.4498 86.7716L50.8686 85.3528Z" fill="#6BB229"/>
</g>
<path d="M82.2526 44.955C82.1855 44.0125 81.8132 43.1174 81.192 42.4054C80.5709 41.6933 79.7346 41.203 78.8099 41.0086C77.8852 40.8142 76.9223 40.9264 76.067 41.3281C75.2118 41.7298 74.5106 42.3992 74.0697 43.2349C73.8806 43.6001 73.5583 43.8787 73.1696 44.0129C72.7808 44.1471 72.3554 44.1268 71.9812 43.956C71.3132 43.6339 70.574 43.488 69.8337 43.5321C69.0935 43.5761 68.3768 43.8088 67.7517 44.2078C67.1267 44.6069 66.6141 45.1592 66.2626 45.8122C65.9112 46.4652 65.7325 47.1972 65.7436 47.9387C65.7436 47.9587 65.7444 47.9787 65.7449 47.9985C65.7495 48.2118 65.711 48.4237 65.6315 48.6217C65.552 48.8197 65.4333 48.9995 65.2824 49.1503C65.1316 49.3011 64.9518 49.4199 64.7539 49.4993C64.5559 49.5788 64.3439 49.6174 64.1306 49.6127C64.0886 49.6115 64.0464 49.6108 64.0041 49.6108C63.3457 49.6114 62.696 49.7613 62.104 50.0493C61.512 50.3374 60.993 50.756 60.5863 51.2737C60.1795 51.7914 59.8956 52.3947 59.7558 53.0381C59.616 53.6815 59.6241 54.3482 59.7794 54.988C60.1973 56.7901 60.2843 58.6532 60.0363 60.4865L59.6567 63.5227L62.6929 63.1431C64.5259 62.8949 66.3888 62.9818 68.1908 63.3998C68.8306 63.5552 69.4974 63.5633 70.1409 63.4236C70.7843 63.2839 71.3876 62.9999 71.9054 62.5932C72.4232 62.1864 72.8419 61.6674 73.13 61.0753C73.418 60.4833 73.568 59.8335 73.5685 59.1751C73.5685 59.1328 73.5678 59.0906 73.5666 59.0487C73.5618 58.8354 73.6004 58.6234 73.6798 58.4254C73.7592 58.2274 73.8779 58.0476 74.0288 57.8968C74.1796 57.7459 74.3595 57.6272 74.5574 57.5478C74.7554 57.4683 74.9674 57.4298 75.1807 57.4346C75.2005 57.4346 75.2203 57.4356 75.2403 57.4358C75.9818 57.447 76.7138 57.2683 77.3668 56.9168C78.0199 56.5654 78.5722 56.0528 78.9713 55.4277C79.3704 54.8027 79.603 54.0859 79.6471 53.3457C79.6912 52.6054 79.5453 51.8661 79.2232 51.1981C79.0525 50.824 79.0321 50.3985 79.1663 50.0098C79.3006 49.6211 79.5791 49.2988 79.9442 49.1097C80.6908 48.716 81.3066 48.1135 81.7165 47.3758C82.1264 46.638 82.3127 45.7969 82.2526 44.955Z" fill="#6BB229"/>
<g style="mix-blend-mode:multiply" opacity="0.2">
<path d="M82.2526 44.955C82.1855 44.0125 81.8132 43.1174 81.192 42.4054C80.5709 41.6933 79.7346 41.203 78.8099 41.0086C77.8852 40.8142 76.9223 40.9264 76.067 41.3281C75.2118 41.7298 74.5106 42.3992 74.0697 43.2349C73.8806 43.6001 73.5583 43.8787 73.1696 44.0129C72.7808 44.1471 72.3554 44.1268 71.9812 43.956C71.3132 43.6339 70.574 43.488 69.8337 43.5321C69.0935 43.5761 68.3768 43.8088 67.7517 44.2078C67.1267 44.6069 66.6141 45.1592 66.2626 45.8122C65.9112 46.4652 65.7325 47.1972 65.7436 47.9387C65.7436 47.9587 65.7444 47.9787 65.7449 47.9985C65.7495 48.2118 65.711 48.4238 65.6315 48.6217C65.552 48.8197 65.4333 48.9995 65.2824 49.1503C65.1316 49.3011 64.9518 49.4199 64.7539 49.4993C64.5559 49.5788 64.3439 49.6174 64.1306 49.6127C64.0886 49.6115 64.0464 49.6108 64.0041 49.6108C63.3457 49.6114 62.696 49.7613 62.104 50.0493C61.512 50.3374 60.993 50.756 60.5863 51.2737C60.1795 51.7915 59.8956 52.3947 59.7558 53.0381C59.616 53.6815 59.6241 54.3482 59.7794 54.988C60.1973 56.7901 60.2843 58.6532 60.0363 60.4865L59.6567 63.5227L62.6929 63.1431C64.5259 62.8949 66.3888 62.9818 68.1908 63.3998C68.8306 63.5552 69.4974 63.5633 70.1409 63.4236C70.7843 63.2839 71.3876 62.9999 71.9054 62.5932C72.4232 62.1864 72.8419 61.6674 73.13 61.0753C73.418 60.4833 73.568 59.8335 73.5685 59.1751C73.5685 59.1328 73.5678 59.0906 73.5666 59.0487C73.5618 58.8354 73.6004 58.6234 73.6798 58.4254C73.7592 58.2274 73.8779 58.0476 74.0288 57.8968C74.1796 57.7459 74.3595 57.6272 74.5574 57.5478C74.7554 57.4683 74.9674 57.4298 75.1807 57.4346C75.2005 57.4346 75.2203 57.4356 75.2403 57.4358C75.9818 57.447 76.7138 57.2683 77.3668 56.9168C78.0199 56.5654 78.5722 56.0528 78.9713 55.4277C79.3704 54.8027 79.603 54.0859 79.6471 53.3457C79.6912 52.6054 79.5453 51.8661 79.2232 51.1981C79.0525 50.824 79.0321 50.3985 79.1663 50.0098C79.3006 49.6211 79.5791 49.2988 79.9442 49.1097C80.6908 48.716 81.3066 48.1135 81.7165 47.3758C82.1264 46.638 82.3127 45.7969 82.2526 44.955Z" fill="#6BB229"/>
</g>
<path d="M25.1342 45.0952C24.5159 45.809 24.1471 46.7048 24.0837 47.647C24.0202 48.5892 24.2656 49.5264 24.7827 50.3166C25.2997 51.1068 26.0602 51.707 26.949 52.0261C27.8377 52.3453 28.8063 52.3661 29.7079 52.0854C30.0999 51.9609 30.5247 51.9916 30.8947 52.1711C31.2647 52.3507 31.5516 52.6654 31.6963 53.0504C31.912 53.6678 32.265 54.2282 32.7287 54.6894C33.138 55.0952 33.6235 55.416 34.1572 55.6334C34.691 55.8508 35.2625 55.9605 35.8388 55.9561C36.4151 55.9517 36.9849 55.8333 37.5153 55.6078C38.0457 55.3823 38.5262 55.0541 38.9293 54.6421C38.9432 54.6278 38.957 54.6135 38.9707 54.599C39.1185 54.4451 39.2958 54.3226 39.4921 54.2389C39.6885 54.1553 39.8997 54.1122 40.113 54.1122C40.3264 54.1122 40.5376 54.1553 40.7339 54.2389C40.9303 54.3226 41.1076 54.4451 41.2554 54.599C41.2843 54.6295 41.3135 54.6597 41.3432 54.6895C41.8098 55.1544 42.3756 55.5076 42.9982 55.7224C43.6208 55.9372 44.284 56.0082 44.938 55.9299C45.592 55.8516 46.2197 55.6261 46.774 55.2704C47.3283 54.9147 47.7948 54.438 48.1385 53.8762C49.1186 52.3085 50.3756 50.932 51.848 49.8138L54.2658 47.9387L51.8485 46.0635C50.3761 44.9454 49.1193 43.569 48.1392 42.0014C47.7956 41.4395 47.3291 40.9627 46.7747 40.607C46.2204 40.2512 45.5926 40.0257 44.9386 39.9474C44.2845 39.8691 43.6213 39.94 42.9986 40.1549C42.3759 40.3697 41.8101 40.7229 41.3435 41.1878C41.3136 41.2177 41.2844 41.2478 41.2557 41.2784C41.1079 41.4323 40.9305 41.5547 40.7343 41.6384C40.538 41.722 40.3268 41.7652 40.1134 41.7652C39.9 41.7652 39.6889 41.722 39.4926 41.6384C39.2963 41.5547 39.1189 41.4323 38.9712 41.2784C38.9574 41.264 38.9437 41.2496 38.9299 41.2353C38.5269 40.8233 38.0463 40.4951 37.5159 40.2696C36.9855 40.044 36.4157 39.9257 35.8393 39.9213C35.263 39.9168 34.6915 40.0265 34.1577 40.2439C33.6239 40.4613 33.1384 40.7821 32.7291 41.1879C32.2653 41.6491 31.9123 42.2095 31.6967 42.827C31.552 43.2119 31.265 43.5267 30.895 43.7062C30.525 43.8858 30.1002 43.9165 29.7083 43.792C28.9016 43.5428 28.0398 43.5333 27.2278 43.7646C26.4158 43.996 25.6884 44.4582 25.1342 45.0952Z" fill="#6BB229"/>
<path d="M79.4849 60.6249L78.0122 61.5741C77.6056 61.8362 77.4884 62.3783 77.7505 62.785L78.6997 64.2576C78.9618 64.6643 79.504 64.7814 79.9106 64.5193L81.3832 63.5701C81.7899 63.308 81.9071 62.7659 81.6449 62.3592L80.6958 60.8866C80.4336 60.48 79.8915 60.3628 79.4849 60.6249Z" fill="#F55349"/>
<path d="M36.2352 33.1838L34.8164 31.765C34.4246 31.3732 33.7894 31.3732 33.3976 31.765L31.9788 33.1838C31.587 33.5756 31.587 34.2109 31.9788 34.6026L33.3976 36.0215C33.7894 36.4132 34.4246 36.4132 34.8164 36.0215L36.2352 34.6026C36.627 34.2109 36.627 33.5756 36.2352 33.1838Z" fill="#F55349"/>
<path d="M66.4991 35.6102L64.9084 37.2009C64.5167 37.5926 64.5167 38.2278 64.9084 38.6195L66.4991 40.2102C66.8908 40.6019 67.5259 40.6019 67.9177 40.2102L69.5084 38.6195C69.9001 38.2278 69.9001 37.5926 69.5084 37.2009L67.9177 35.6102C67.5259 35.2185 66.8908 35.2185 66.4991 35.6102Z" fill="#FFC34F"/>
<g style="mix-blend-mode:multiply" opacity="0.36">
<path d="M66.4991 35.6102L64.9084 37.2009C64.5167 37.5926 64.5167 38.2278 64.9084 38.6195L66.4991 40.2102C66.8908 40.6019 67.5259 40.6019 67.9177 40.2102L69.5084 38.6195C69.9001 38.2278 69.9001 37.5926 69.5084 37.2009L67.9177 35.6102C67.5259 35.2185 66.8908 35.2185 66.4991 35.6102Z" fill="#FFC34F"/>
</g>
<path d="M30.0578 50.6212L28.4671 52.2118C28.0754 52.6036 28.0754 53.2387 28.4671 53.6304L30.0578 55.2211C30.4495 55.6129 31.0847 55.6129 31.4764 55.2211L33.0671 53.6304C33.4588 53.2387 33.4588 52.6036 33.0671 52.2118L31.4764 50.6212C31.0847 50.2294 30.4495 50.2294 30.0578 50.6212Z" fill="#FFC34F"/>
<g style="mix-blend-mode:multiply" opacity="0.36">
<path d="M30.0578 50.6212L28.4671 52.2118C28.0754 52.6036 28.0754 53.2387 28.4671 53.6304L30.0578 55.2211C30.4495 55.6129 31.0847 55.6129 31.4764 55.2211L33.0671 53.6304C33.4588 53.2387 33.4588 52.6036 33.0671 52.2118L31.4764 50.6212C31.0847 50.2294 30.4495 50.2294 30.0578 50.6212Z" fill="#FFC34F"/>
</g>
<path d="M53.1626 55.3778C52.7708 54.9861 52.7708 54.3509 53.1626 53.9592C53.5544 53.5674 54.1895 53.5674 54.5813 53.9592L56.1719 55.5498C56.5636 55.9415 56.5636 56.5767 56.1719 56.9684C55.7801 57.3602 55.145 57.3602 54.7532 56.9684L53.1626 55.3778Z" fill="#FFC34F"/>
<g style="mix-blend-mode:multiply" opacity="0.36">
<path d="M53.1626 55.3778C52.7708 54.9861 52.7708 54.3509 53.1626 53.9592C53.5544 53.5674 54.1895 53.5674 54.5813 53.9592L56.1719 55.5498C56.5636 55.9415 56.5636 56.5767 56.1719 56.9684C55.7801 57.3602 55.145 57.3602 54.7532 56.9684L53.1626 55.3778Z" fill="#FFC34F"/>
</g>
<path d="M57.1769 42.9248C56.7852 42.533 56.7852 41.8978 57.1769 41.5061L58.5168 40.1662C58.9086 39.7745 59.5437 39.7745 59.9355 40.1662C60.3272 40.558 60.3272 41.1931 59.9355 41.5849L58.5956 42.9248C58.2039 43.3165 57.5687 43.3165 57.1769 42.9248Z" fill="#F55349"/>
<path d="M76.2372 36.9079C75.8454 36.5161 75.8454 35.881 76.2372 35.4892L77.577 34.1494C77.9688 33.7576 78.604 33.7576 78.9957 34.1494C79.3875 34.5411 79.3875 35.1763 78.9957 35.568L77.6559 36.9079C77.2641 37.2997 76.6289 37.2997 76.2372 36.9079Z" fill="#FFC34F"/>
<g style="mix-blend-mode:multiply" opacity="0.36">
<path d="M76.2372 36.9079C75.8454 36.5161 75.8454 35.881 76.2372 35.4892L77.577 34.1494C77.9688 33.7576 78.604 33.7576 78.9957 34.1494C79.3875 34.5411 79.3875 35.1763 78.9957 35.568L77.6559 36.9079C77.2641 37.2997 76.6289 37.2997 76.2372 36.9079Z" fill="#FFC34F"/>
</g>
<path d="M45.1396 36.3172C44.7478 35.9255 44.7478 35.2903 45.1396 34.8985C45.5313 34.5068 46.1665 34.5068 46.5583 34.8985L48.1489 36.4891C48.5406 36.8809 48.5406 37.5161 48.1489 37.9078C47.7571 38.2996 47.1219 38.2996 46.7302 37.9078L45.1396 36.3172Z" fill="#FFC34F"/>
<g style="mix-blend-mode:multiply" opacity="0.36">
<path d="M45.1396 36.3172C44.7478 35.9255 44.7478 35.2903 45.1396 34.8985C45.5313 34.5068 46.1665 34.5068 46.5583 34.8985L48.1489 36.4891C48.5406 36.8809 48.5406 37.5161 48.1489 37.9078C47.7571 38.2996 47.1219 38.2996 46.7302 37.9078L45.1396 36.3172Z" fill="#FFC34F"/>
</g>
<path d="M59.1884 46.9354H46.8229L42.8567 42.9795L41.4398 44.4001L43.9817 46.9354H39.7229L35.7566 42.9795L34.3396 44.4001L36.8817 46.9354H30.8828V48.9419H36.8817L34.3396 51.4773L35.7566 52.8979L39.7229 48.9419H43.9817L41.4398 51.4773L42.8567 52.8979L46.8229 48.9419H59.1884V46.9354Z" fill="#6BB229"/>
<g style="mix-blend-mode:multiply" opacity="0.36">
<path d="M59.1884 46.9354H46.8229L42.8567 42.9795L41.4398 44.4001L43.9817 46.9354H39.7229L35.7566 42.9795L34.3396 44.4001L36.8817 46.9354H30.8828V48.9419H36.8817L34.3396 51.4773L35.7566 52.8979L39.7229 48.9419H43.9817L41.4398 51.4773L42.8567 52.8979L46.8229 48.9419H59.1884V46.9354Z" fill="#6BB229"/>
</g>
<path d="M76.8865 47.7117L75.4677 46.2928L71.2277 50.5328V46.9354H69.2212V52.5393L66.2114 55.5491V51.9517H64.2049V57.5556L56.4728 65.2877L57.8916 66.7066L65.6238 58.9744H71.2277V56.9679H67.6303L70.64 53.9582H76.2439V51.9517H72.6465L76.8865 47.7117Z" fill="#6BB229"/>
<g style="mix-blend-mode:multiply" opacity="0.6">
<path d="M76.8865 47.7117L75.4677 46.2928L71.2277 50.5328V46.9354H69.2212V52.5393L66.2114 55.5491V51.9517H64.2049V57.5556L56.4728 65.2877L57.8916 66.7066L65.6238 58.9744H71.2277V56.9679H67.6303L70.64 53.9582H76.2439V51.9517H72.6465L76.8865 47.7117Z" fill="#6BB229"/>
</g>
<path d="M83.4824 76.7759C83.7272 76.7759 83.9265 76.9744 83.9179 77.2191C83.862 78.8147 83.503 80.3889 82.857 81.8661C82.1512 83.4799 81.1166 84.9462 79.8124 86.1813C78.5081 87.4164 76.9596 88.3961 75.2554 89.0644C73.5512 89.7328 71.7247 90.0766 69.8802 90.0764H39.7827C36.0576 90.0764 32.4851 88.6751 29.851 86.1808C27.3275 83.7912 25.8635 80.5858 25.745 77.2193C25.7364 76.9746 25.9357 76.7759 26.1805 76.7759H83.4824Z" fill="#F55349"/>
<g style="mix-blend-mode:multiply" opacity="0.36">
<path d="M83.4825 76.7759C83.7273 76.7759 83.9266 76.9745 83.918 77.2191C83.8621 78.8147 83.5031 80.3889 82.8571 81.8661C82.1513 83.4799 81.1168 84.9462 79.8125 86.1813C78.5082 87.4164 76.9597 88.3961 75.2555 89.0644C73.5514 89.7328 71.7248 90.0767 69.8803 90.0764H62.8575C64.7021 90.0767 66.5286 89.7328 68.2328 89.0644C69.937 88.3961 71.4854 87.4164 72.7897 86.1813C74.094 84.9462 75.1286 83.4799 75.8344 81.8661C76.5401 80.2523 76.9033 78.5226 76.903 76.7759H83.4825Z" fill="#F55349"/>
</g>
<g style="mix-blend-mode:multiply" opacity="0.36">
<path d="M31.5428 82.6228C31.218 82.8537 30.7547 82.7927 30.533 82.4705C30.3359 82.1841 30.1537 81.8888 29.9872 81.5855C29.7997 81.2442 29.9714 80.8321 30.3435 80.6778L30.8343 80.4742C31.2062 80.3199 31.6372 80.4818 31.8299 80.8202C31.9279 80.9922 32.0321 81.161 32.1423 81.3263C32.3592 81.6516 32.2964 82.087 31.9714 82.318L31.5428 82.6228Z" fill="#F55349"/>
</g>
<g style="mix-blend-mode:multiply" opacity="0.36">
<path d="M39.7828 86.53C39.7828 86.9146 39.4531 87.2288 39.0479 87.2032C36.8528 87.0645 34.7512 86.3062 33.0153 85.0264C32.6949 84.7903 32.6695 84.3482 32.9395 84.0611L33.2957 83.6823C33.566 83.3949 34.0296 83.3721 34.354 83.604C35.7172 84.5786 37.3456 85.1662 39.048 85.2979C39.4528 85.3293 39.7828 85.6381 39.7828 86.0228V86.53Z" fill="#F55349"/>
</g>
</svg>
