<svg width="108" height="107" viewBox="0 0 108 107" fill="none" xmlns="http://www.w3.org/2000/svg">
<rect x="0.79792" y="0.29792" width="106.404" height="106.404" rx="14.1872" fill="#8D5252" fill-opacity="0.04"/>
<ellipse opacity="0.14" cx="54" cy="90.9077" rx="41.5641" ry="2.49385" fill="#F55349"/>
<circle opacity="0.1" cx="54" cy="53.5" r="29.9262" fill="#F55349"/>
<path d="M66.12 77.0253L73.8011 69.3442C75.0646 68.0807 75.0646 66.0357 73.8011 64.7556L67.7161 58.6706L55.463 70.9237L61.548 77.0087C62.8115 78.2722 64.8565 78.2722 66.12 77.0087V77.0253Z" fill="#FFC34F"/>
<g style="mix-blend-mode:multiply" opacity="0.4">
<path d="M73.7844 64.7556L67.6994 58.6706L64.9063 61.4637L70.9913 67.5487C72.2549 68.8122 72.2549 70.8572 70.9913 72.1374L73.7844 69.3442C75.048 68.0807 75.048 66.0357 73.7844 64.7556Z" fill="#FFC34F"/>
</g>
<path d="M59.503 71.3393L68.165 62.6774C69.1625 61.6798 69.1791 60.1004 68.7469 59.6349L66.9513 57.8393C65.4716 56.3929 63.8922 56.4261 62.8946 57.4237L54.2327 66.0856C53.2351 67.0832 53.2185 68.6626 54.1662 69.6103L55.9617 71.4058C56.926 72.3701 58.5054 72.3369 59.4864 71.3393H59.503Z" fill="#F55349"/>
<path d="M79.1379 83.4262C78.7555 83.4262 78.3897 83.2765 78.1071 83.0105L68.697 73.6004C68.1317 73.0351 68.1317 72.1041 68.697 71.5388C69.2623 70.9736 70.1933 70.9736 70.7586 71.5388L80.1687 80.949C80.734 81.5142 80.734 82.4453 80.1687 83.0105C79.8694 83.2765 79.5037 83.4262 79.1213 83.4262H79.1379Z" fill="#FFC34F"/>
<path d="M61.3817 65.6534C60.9993 65.6534 60.6335 65.5037 60.3509 65.2377L56.0282 60.915C55.463 60.3498 55.463 59.4187 56.0282 58.8535C56.5935 58.2882 57.5245 58.2882 58.0898 58.8535L62.4125 63.1761C62.9778 63.7414 62.9778 64.6724 62.4125 65.2377C62.1132 65.5037 61.7475 65.6534 61.3651 65.6534H61.3817Z" fill="#FFC34F"/>
<g style="mix-blend-mode:multiply" opacity="0.4">
<path d="M61.3817 65.6534C60.9993 65.6534 60.6335 65.5037 60.3509 65.2377L56.0282 60.915C55.463 60.3498 55.463 59.4187 56.0282 58.8535C56.5935 58.2882 57.5245 58.2882 58.0898 58.8535L62.4125 63.1761C62.9778 63.7414 62.9778 64.6724 62.4125 65.2377C62.1132 65.5037 61.7475 65.6534 61.3651 65.6534H61.3817Z" fill="#FFC34F"/>
</g>
<path d="M57.9568 61.3473C61.2653 58.0388 61.2653 52.6853 57.9568 49.3935C54.6483 46.085 49.3115 46.085 46.003 49.3935C42.6945 52.702 42.6945 58.0554 46.003 61.3473C49.3115 64.6558 54.6483 64.6558 57.9568 61.3473Z" fill="#F55349"/>
<g style="mix-blend-mode:multiply" opacity="0.36">
<path d="M53.8669 57.274C52.6366 58.5043 51.0571 59.319 49.3447 59.6182C47.6323 59.9175 45.8699 59.6847 44.3071 58.9366C44.7062 59.7845 45.2714 60.5992 45.9697 61.3141C49.2616 64.6059 54.615 64.6059 57.9069 61.3141C61.1988 58.0222 61.1988 52.6687 57.9069 49.3768C57.192 48.6619 56.3774 48.0967 55.5294 47.7143C57.0091 50.8399 56.4439 54.6804 53.8669 57.274Z" fill="#F55349"/>
</g>
<path d="M49.0288 53.2839C48.6464 53.2839 48.2807 53.1342 47.998 52.8682L43.9913 48.8947C43.426 48.3294 43.426 47.3984 43.9913 46.8331C44.5565 46.2678 45.4876 46.2678 46.0528 46.8331L50.0264 50.8067C50.5916 51.3719 50.5916 52.303 50.0264 52.8682C49.7271 53.1342 49.3613 53.2839 48.9956 53.2839H49.0288Z" fill="#FFC34F"/>
<g style="mix-blend-mode:multiply" opacity="0.4">
<path d="M49.0288 53.2839C48.6464 53.2839 48.2807 53.1342 47.998 52.8682L43.9913 48.8947C43.426 48.3294 43.426 47.3984 43.9913 46.8331C44.5565 46.2678 45.4876 46.2678 46.0528 46.8331L50.0264 50.8067C50.5916 51.3719 50.5916 52.303 50.0264 52.8682C49.7271 53.1342 49.3613 53.2839 48.9956 53.2839H49.0288Z" fill="#FFC34F"/>
</g>
<path d="M41.4642 52.436L49.1452 44.7549C50.4088 43.4914 50.4088 41.4464 49.1452 40.1662L43.0603 34.0812L30.7905 46.351L36.8755 52.436C38.1391 53.6995 40.184 53.6995 41.4476 52.436H41.4642Z" fill="#FFC34F"/>
<g style="mix-blend-mode:multiply" opacity="0.4">
<path d="M49.1286 40.1829L43.0436 34.0979L40.2505 36.891L46.3355 42.976C47.5991 44.2395 47.5991 46.2845 46.3355 47.5646L49.1286 44.7715C50.3922 43.508 50.3922 41.463 49.1286 40.1829Z" fill="#FFC34F"/>
</g>
<path d="M34.8472 46.7666L43.5091 38.1047C44.5067 37.1071 44.5233 35.5277 44.091 35.0622L42.2954 33.2666C40.8158 31.8202 39.2363 31.8534 38.2388 32.8509L29.5935 41.5129C28.5959 42.5104 28.5793 44.0899 29.5269 45.0375L31.3225 46.8331C32.2868 47.7974 33.8662 47.7642 34.8472 46.7666Z" fill="#F55349"/>
<path d="M35.9112 40.1995C35.5288 40.1995 35.163 40.0499 34.8804 39.7838L27.8145 32.7179C27.2659 32.1527 27.2659 31.205 27.8145 30.6397C28.3798 30.0911 29.3274 30.0911 29.8927 30.6397L36.9586 37.7056C37.5239 38.2709 37.5239 39.2019 36.9586 39.7672C36.6594 40.0665 36.2936 40.1995 35.9112 40.1995Z" fill="#FFC34F"/>
</svg>
