<svg width="108" height="107" viewBox="0 0 108 107" fill="none" xmlns="http://www.w3.org/2000/svg">
<rect x="0.797913" y="0.29792" width="106.404" height="106.404" rx="14.1872" fill="#8D5252" fill-opacity="0.04"/>
<circle opacity="0.1" cx="54" cy="53.5" r="29.9262" fill="#F55349"/>
<ellipse opacity="0.14" cx="54" cy="90.9077" rx="41.5641" ry="2.49385" fill="#F55349"/>
<path d="M65.1397 86.8506H39.9519V91.0901H65.1397V86.8506Z" fill="#6BB229"/>
<g style="mix-blend-mode:multiply" opacity="0.36">
<path d="M65.1397 86.8506H39.9519V91.0901H65.1397V86.8506Z" fill="#FFC34F"/>
</g>
<path d="M34.1952 82.4239C38.4534 82.4239 41.9053 78.972 41.9053 74.7138C41.9053 70.4556 38.4534 67.0036 34.1952 67.0036C29.937 67.0036 26.485 70.4556 26.485 74.7138C26.485 78.972 29.937 82.4239 34.1952 82.4239Z" fill="#F55349"/>
<path d="M66.4283 84.0242C69.7109 84.0242 72.372 81.3631 72.372 78.0805C72.372 74.7979 69.7109 72.1368 66.4283 72.1368C63.1457 72.1368 60.4846 74.7979 60.4846 78.0805C60.4846 81.3631 63.1457 84.0242 66.4283 84.0242Z" fill="#F55349"/>
<g style="mix-blend-mode:multiply" opacity="0.4">
<path d="M66.4283 84.0242C69.7109 84.0242 72.372 81.3631 72.372 78.0805C72.372 74.7979 69.7109 72.1368 66.4283 72.1368C63.1457 72.1368 60.4846 74.7979 60.4846 78.0805C60.4846 81.3631 63.1457 84.0242 66.4283 84.0242Z" fill="#F55349"/>
</g>
<path d="M64.3084 54.4929L84.467 59.1897V65.9854L64.3084 60.8107V54.4929Z" fill="#FFC34F"/>
<path d="M64.3084 47.5517L84.467 37.2438V44.85L64.3084 51.9783V47.5517Z" fill="#6BB229"/>
<path d="M27.5866 50.6067V46.866L64.3085 54.493V60.8107L27.5866 50.6067Z" fill="#FFC34F"/>
<g style="mix-blend-mode:multiply" opacity="0.36">
<path d="M27.5866 50.6067V46.866L64.3085 54.493V60.8107L27.5866 50.6067Z" fill="#FFC34F"/>
</g>
<g style="mix-blend-mode:multiply" opacity="0.36">
<path d="M64.3084 54.4929L84.467 59.1897V65.9854L64.3084 60.8107V54.4929Z" fill="#FFC34F"/>
</g>
<path d="M41.906 57.9427L41.906 78.1637H46.3949V55.8645L41.906 57.9427Z" fill="#FFC34F"/>
<path d="M50.8625 53.7863L50.8625 78.1637H55.3514L55.3514 51.7081L50.8625 53.7863Z" fill="#FFC34F"/>
<path d="M59.8197 78.1637H64.3086V47.5517L59.8197 49.6299L59.8197 78.1637Z" fill="#FFC34F"/>
<path d="M37.4166 60.0001V78.1637H41.9055V57.9427L37.4166 60.0001Z" fill="#FFC34F"/>
<g style="mix-blend-mode:multiply" opacity="0.36">
<path d="M41.906 57.9427L41.906 78.1637H46.3949V55.8645L41.906 57.9427Z" fill="#FFC34F"/>
</g>
<path d="M46.3943 55.8645L46.3943 78.1637H50.8625L50.8625 53.7863L46.3943 55.8645Z" fill="#FFC34F"/>
<g style="mix-blend-mode:multiply" opacity="0.36">
<path d="M50.8625 53.7863L50.8625 78.1637H55.3514L55.3514 51.7081L50.8625 53.7863Z" fill="#FFC34F"/>
</g>
<path d="M55.3516 51.7081L55.3516 78.1637H59.8197L59.8197 49.6299L55.3516 51.7081Z" fill="#FFC34F"/>
<g style="mix-blend-mode:multiply" opacity="0.36">
<path d="M59.8197 78.1637H64.3086V47.5517L59.8197 49.6299L59.8197 78.1637Z" fill="#FFC34F"/>
</g>
<path d="M17.819 78.1636C23.9497 84.1657 31.9716 87.4902 40.2636 87.4902H64.7865C73.0993 87.4902 81.1004 84.1657 87.2311 78.1636L17.819 78.1636Z" fill="#6BB229"/>
<g style="mix-blend-mode:multiply" opacity="0.36">
<path d="M25.1822 78.1636H17.819C23.9497 84.1657 31.9716 87.4902 40.2636 87.4902H63.6059C55.3347 87.4902 32.5714 86.524 25.1822 78.1636Z" fill="#FFC34F"/>
</g>
</svg>
