<svg width="7" height="11" viewBox="0 0 7 11" fill="none" xmlns="http://www.w3.org/2000/svg">
<path d="M7 5.00002C7.00076 5.13163 6.97554 5.26209 6.92577 5.38393C6.87601 5.50576 6.80268 5.61658 6.71 5.71002L2.71 9.71002C2.5217 9.89832 2.2663 10.0041 2 10.0041C1.7337 10.0041 1.47831 9.89832 1.29 9.71002C1.1017 9.52172 0.995911 9.26632 0.995911 9.00002C0.995911 8.73372 1.1017 8.47832 1.29 8.29002L4.59 5.00002L1.3 1.71002C1.13618 1.51872 1.05057 1.27264 1.06029 1.02097C1.07001 0.769293 1.17434 0.530553 1.35244 0.352458C1.53053 0.174364 1.76927 0.0700327 2.02095 0.0603115C2.27262 0.0505904 2.5187 0.136195 2.71 0.300021L6.71 4.30002C6.89475 4.48628 6.9989 4.73768 7 5.00002Z" fill="#F8B602"/>
</svg>
